<svg width="60" height="24" viewBox="0 0 60 24" fill="none" xmlns="http://www.w3.org/2000/svg">
<rect width="60" height="24" rx="12" fill="#795D9E"/>
<g filter="url(#filter0_d_316_5404)">
<path d="M18.8714 11.897C18.8714 12.7883 18.7757 13.5607 18.5844 14.214C18.393 14.8673 18.127 15.4087 17.7864 15.838C17.4504 16.2673 17.049 16.587 16.5824 16.797C16.1204 17.007 15.6187 17.112 15.0774 17.112C14.536 17.112 14.0344 17.007 13.5724 16.797C13.115 16.587 12.7184 16.2673 12.3824 15.838C12.0464 15.4087 11.7827 14.8673 11.5914 14.214C11.4047 13.5607 11.3114 12.7883 11.3114 11.897C11.3114 11.0057 11.4047 10.2333 11.5914 9.58C11.7827 8.92667 12.0464 8.38533 12.3824 7.956C12.7184 7.52667 13.115 7.20933 13.5724 7.004C14.0344 6.794 14.536 6.689 15.0774 6.689C15.6187 6.689 16.1204 6.794 16.5824 7.004C17.049 7.20933 17.4504 7.52667 17.7864 7.956C18.127 8.38533 18.393 8.92667 18.5844 9.58C18.7757 10.2333 18.8714 11.0057 18.8714 11.897ZM16.6314 11.897C16.6314 11.1923 16.587 10.616 16.4984 10.168C16.4097 9.71533 16.2907 9.36067 16.1414 9.104C15.9967 8.84733 15.831 8.67233 15.6444 8.579C15.4577 8.481 15.2687 8.432 15.0774 8.432C14.886 8.432 14.697 8.481 14.5104 8.579C14.3284 8.67233 14.165 8.84733 14.0204 9.104C13.8804 9.36067 13.766 9.71533 13.6774 10.168C13.5934 10.616 13.5514 11.1923 13.5514 11.897C13.5514 12.6063 13.5934 13.185 13.6774 13.633C13.766 14.081 13.8804 14.4357 14.0204 14.697C14.165 14.9537 14.3284 15.131 14.5104 15.229C14.697 15.3223 14.886 15.369 15.0774 15.369C15.2687 15.369 15.4577 15.3223 15.6444 15.229C15.831 15.131 15.9967 14.9537 16.1414 14.697C16.2907 14.4357 16.4097 14.081 16.4984 13.633C16.587 13.185 16.6314 12.6063 16.6314 11.897ZM20.1325 15.901C20.1325 15.733 20.1628 15.5767 20.2235 15.432C20.2888 15.2873 20.3751 15.1613 20.4825 15.054C20.5945 14.9467 20.7251 14.8627 20.8745 14.802C21.0238 14.7367 21.1871 14.704 21.3645 14.704C21.5371 14.704 21.6981 14.7367 21.8475 14.802C21.9968 14.8627 22.1275 14.9467 22.2395 15.054C22.3515 15.1613 22.4378 15.2873 22.4985 15.432C22.5638 15.5767 22.5965 15.733 22.5965 15.901C22.5965 16.069 22.5638 16.2277 22.4985 16.377C22.4378 16.5217 22.3515 16.6477 22.2395 16.755C22.1275 16.8623 21.9968 16.9463 21.8475 17.007C21.6981 17.0677 21.5371 17.098 21.3645 17.098C21.1871 17.098 21.0238 17.0677 20.8745 17.007C20.7251 16.9463 20.5945 16.8623 20.4825 16.755C20.3751 16.6477 20.2888 16.5217 20.2235 16.377C20.1628 16.2277 20.1325 16.069 20.1325 15.901ZM28.3971 10.539C28.7657 10.539 29.1297 10.5997 29.4891 10.721C29.8484 10.8423 30.1704 11.029 30.4551 11.281C30.7397 11.533 30.9684 11.8527 31.1411 12.24C31.3184 12.6227 31.4071 13.0753 31.4071 13.598C31.4071 14.074 31.3184 14.5267 31.1411 14.956C30.9637 15.3807 30.7117 15.754 30.3851 16.076C30.0631 16.3933 29.6734 16.6453 29.2161 16.832C28.7587 17.0187 28.2524 17.112 27.6971 17.112C27.1277 17.112 26.6167 17.0233 26.1641 16.846C25.7114 16.664 25.3264 16.412 25.0091 16.09C24.6964 15.768 24.4561 15.383 24.2881 14.935C24.1247 14.487 24.0431 13.9947 24.0431 13.458C24.0431 12.9493 24.1411 12.443 24.3371 11.939C24.5331 11.435 24.8224 10.9217 25.2051 10.399L27.5011 7.298C27.6037 7.158 27.7577 7.04133 27.9631 6.948C28.1684 6.85 28.4017 6.801 28.6631 6.801H30.5951L27.5711 10.413C27.5244 10.4643 27.4777 10.518 27.4311 10.574C27.3891 10.6253 27.3471 10.6767 27.3051 10.728C27.4684 10.6673 27.6387 10.6207 27.8161 10.588C27.9981 10.5553 28.1917 10.539 28.3971 10.539ZM26.1291 13.752C26.1291 14.004 26.1594 14.2303 26.2201 14.431C26.2807 14.6317 26.3741 14.8043 26.5001 14.949C26.6261 15.0937 26.7847 15.2057 26.9761 15.285C27.1674 15.3597 27.3937 15.397 27.6551 15.397C27.8791 15.397 28.0867 15.355 28.2781 15.271C28.4741 15.187 28.6421 15.0727 28.7821 14.928C28.9221 14.7787 29.0317 14.606 29.1111 14.41C29.1951 14.2093 29.2371 13.9923 29.2371 13.759C29.2371 13.4977 29.1974 13.2643 29.1181 13.059C29.0434 12.8537 28.9361 12.681 28.7961 12.541C28.6561 12.401 28.4857 12.2937 28.2851 12.219C28.0891 12.1443 27.8697 12.107 27.6271 12.107C27.4077 12.107 27.2071 12.1467 27.0251 12.226C26.8431 12.3007 26.6844 12.4103 26.5491 12.555C26.4184 12.6997 26.3157 12.8723 26.2411 13.073C26.1664 13.2737 26.1291 13.5 26.1291 13.752ZM39.2481 7.697C39.2481 7.84633 39.2248 7.98167 39.1781 8.103C39.1315 8.22433 39.0568 8.33167 38.9541 8.425C38.8561 8.51367 38.7255 8.58367 38.5621 8.635C38.3988 8.68167 38.2028 8.705 37.9741 8.705H35.5381L35.2511 10.392C35.4425 10.3593 35.6268 10.336 35.8041 10.322C35.9815 10.3033 36.1541 10.294 36.3221 10.294C36.8588 10.294 37.3325 10.3757 37.7431 10.539C38.1538 10.7023 38.4991 10.9263 38.7791 11.211C39.0591 11.491 39.2691 11.8223 39.4091 12.205C39.5538 12.583 39.6261 12.989 39.6261 13.423C39.6261 13.969 39.5281 14.4683 39.3321 14.921C39.1408 15.369 38.8725 15.7563 38.5271 16.083C38.1818 16.4097 37.7688 16.664 37.2881 16.846C36.8121 17.0233 36.2895 17.112 35.7201 17.112C35.3888 17.112 35.0715 17.077 34.7681 17.007C34.4695 16.937 34.1871 16.8437 33.9211 16.727C33.6598 16.6057 33.4171 16.468 33.1931 16.314C32.9691 16.1553 32.7661 15.9873 32.5841 15.81L33.2561 14.914C33.3261 14.8207 33.4078 14.7507 33.5011 14.704C33.5945 14.6527 33.6948 14.627 33.8021 14.627C33.9421 14.627 34.0728 14.6667 34.1941 14.746C34.3201 14.8207 34.4555 14.9047 34.6001 14.998C34.7495 15.0867 34.9221 15.1683 35.1181 15.243C35.3141 15.3177 35.5568 15.355 35.8461 15.355C36.1355 15.355 36.3828 15.3083 36.5881 15.215C36.7935 15.117 36.9591 14.9863 37.0851 14.823C37.2158 14.655 37.3091 14.4613 37.3651 14.242C37.4258 14.018 37.4561 13.78 37.4561 13.528C37.4561 13.0333 37.3161 12.6577 37.0361 12.401C36.7561 12.1397 36.3595 12.009 35.8461 12.009C35.3888 12.009 34.9408 12.0953 34.5021 12.268L33.1581 11.904L34.0261 6.801H39.2481V7.697ZM43.5192 13.248L41.1812 9.741H43.2672C43.4212 9.741 43.5332 9.762 43.6032 9.804C43.6779 9.84133 43.7432 9.90667 43.7992 10L45.0942 12.149C45.1222 12.065 45.1572 11.9833 45.1992 11.904C45.2412 11.8247 45.2879 11.7407 45.3392 11.652L46.2632 10.035C46.3239 9.92767 46.3916 9.853 46.4662 9.811C46.5409 9.76433 46.6319 9.741 46.7392 9.741H48.7272L46.3892 13.15L48.8252 17H46.7392C46.5852 17 46.4616 16.9627 46.3682 16.888C46.2749 16.8133 46.1979 16.7247 46.1372 16.622L44.8422 14.396C44.8189 14.4753 44.7909 14.55 44.7582 14.62C44.7256 14.69 44.6906 14.7553 44.6532 14.816L43.5892 16.622C43.5332 16.72 43.4586 16.8087 43.3652 16.888C43.2719 16.9627 43.1552 17 43.0152 17H41.0832L43.5192 13.248Z" fill="white"/>
</g>
<defs>
<filter id="filter0_d_316_5404" x="9.31137" y="6.68896" width="41.5139" height="14.4231" filterUnits="userSpaceOnUse" color-interpolation-filters="sRGB">
<feFlood flood-opacity="0" result="BackgroundImageFix"/>
<feColorMatrix in="SourceAlpha" type="matrix" values="0 0 0 0 0 0 0 0 0 0 0 0 0 0 0 0 0 0 127 0" result="hardAlpha"/>
<feOffset dy="2"/>
<feGaussianBlur stdDeviation="1"/>
<feColorMatrix type="matrix" values="0 0 0 0 0 0 0 0 0 0 0 0 0 0 0 0 0 0 0.25 0"/>
<feBlend mode="normal" in2="BackgroundImageFix" result="effect1_dropShadow_316_5404"/>
<feBlend mode="normal" in="SourceGraphic" in2="effect1_dropShadow_316_5404" result="shape"/>
</filter>
</defs>
</svg>
