<svg width="60" height="24" viewBox="0 0 60 24" fill="none" xmlns="http://www.w3.org/2000/svg">
<rect width="60" height="24" rx="12" fill="#745E9F"/>
<g filter="url(#filter0_d_316_5402)">
<path d="M23.2119 11.897C23.2119 12.7883 23.1162 13.5607 22.9249 14.214C22.7336 14.8673 22.4676 15.4087 22.1269 15.838C21.7909 16.2673 21.3896 16.587 20.9229 16.797C20.4609 17.007 19.9592 17.112 19.4179 17.112C18.8766 17.112 18.3749 17.007 17.9129 16.797C17.4556 16.587 17.0589 16.2673 16.7229 15.838C16.3869 15.4087 16.1232 14.8673 15.9319 14.214C15.7452 13.5607 15.6519 12.7883 15.6519 11.897C15.6519 11.0057 15.7452 10.2333 15.9319 9.58C16.1232 8.92667 16.3869 8.38533 16.7229 7.956C17.0589 7.52667 17.4556 7.20933 17.9129 7.004C18.3749 6.794 18.8766 6.689 19.4179 6.689C19.9592 6.689 20.4609 6.794 20.9229 7.004C21.3896 7.20933 21.7909 7.52667 22.1269 7.956C22.4676 8.38533 22.7336 8.92667 22.9249 9.58C23.1162 10.2333 23.2119 11.0057 23.2119 11.897ZM20.9719 11.897C20.9719 11.1923 20.9276 10.616 20.8389 10.168C20.7502 9.71533 20.6312 9.36067 20.4819 9.104C20.3372 8.84733 20.1716 8.67233 19.9849 8.579C19.7982 8.481 19.6092 8.432 19.4179 8.432C19.2266 8.432 19.0376 8.481 18.8509 8.579C18.6689 8.67233 18.5056 8.84733 18.3609 9.104C18.2209 9.36067 18.1066 9.71533 18.0179 10.168C17.9339 10.616 17.8919 11.1923 17.8919 11.897C17.8919 12.6063 17.9339 13.185 18.0179 13.633C18.1066 14.081 18.2209 14.4357 18.3609 14.697C18.5056 14.9537 18.6689 15.131 18.8509 15.229C19.0376 15.3223 19.2266 15.369 19.4179 15.369C19.6092 15.369 19.7982 15.3223 19.9849 15.229C20.1716 15.131 20.3372 14.9537 20.4819 14.697C20.6312 14.4357 20.7502 14.081 20.8389 13.633C20.9276 13.185 20.9719 12.6063 20.9719 11.897ZM24.473 15.901C24.473 15.733 24.5033 15.5767 24.564 15.432C24.6293 15.2873 24.7157 15.1613 24.823 15.054C24.935 14.9467 25.0657 14.8627 25.215 14.802C25.3643 14.7367 25.5277 14.704 25.705 14.704C25.8777 14.704 26.0387 14.7367 26.188 14.802C26.3373 14.8627 26.468 14.9467 26.58 15.054C26.692 15.1613 26.7783 15.2873 26.839 15.432C26.9043 15.5767 26.937 15.733 26.937 15.901C26.937 16.069 26.9043 16.2277 26.839 16.377C26.7783 16.5217 26.692 16.6477 26.58 16.755C26.468 16.8623 26.3373 16.9463 26.188 17.007C26.0387 17.0677 25.8777 17.098 25.705 17.098C25.5277 17.098 25.3643 17.0677 25.215 17.007C25.0657 16.9463 24.935 16.8623 24.823 16.755C24.7157 16.6477 24.6293 16.5217 24.564 16.377C24.5033 16.2277 24.473 16.069 24.473 15.901ZM32.7376 10.539C33.1063 10.539 33.4703 10.5997 33.8296 10.721C34.1889 10.8423 34.5109 11.029 34.7956 11.281C35.0803 11.533 35.3089 11.8527 35.4816 12.24C35.6589 12.6227 35.7476 13.0753 35.7476 13.598C35.7476 14.074 35.6589 14.5267 35.4816 14.956C35.3043 15.3807 35.0523 15.754 34.7256 16.076C34.4036 16.3933 34.0139 16.6453 33.5566 16.832C33.0993 17.0187 32.5929 17.112 32.0376 17.112C31.4683 17.112 30.9573 17.0233 30.5046 16.846C30.0519 16.664 29.6669 16.412 29.3496 16.09C29.0369 15.768 28.7966 15.383 28.6286 14.935C28.4653 14.487 28.3836 13.9947 28.3836 13.458C28.3836 12.9493 28.4816 12.443 28.6776 11.939C28.8736 11.435 29.1629 10.9217 29.5456 10.399L31.8416 7.298C31.9443 7.158 32.0983 7.04133 32.3036 6.948C32.5089 6.85 32.7423 6.801 33.0036 6.801H34.9356L31.9116 10.413C31.8649 10.4643 31.8183 10.518 31.7716 10.574C31.7296 10.6253 31.6876 10.6767 31.6456 10.728C31.8089 10.6673 31.9793 10.6207 32.1566 10.588C32.3386 10.5553 32.5323 10.539 32.7376 10.539ZM30.4696 13.752C30.4696 14.004 30.4999 14.2303 30.5606 14.431C30.6213 14.6317 30.7146 14.8043 30.8406 14.949C30.9666 15.0937 31.1253 15.2057 31.3166 15.285C31.5079 15.3597 31.7343 15.397 31.9956 15.397C32.2196 15.397 32.4273 15.355 32.6186 15.271C32.8146 15.187 32.9826 15.0727 33.1226 14.928C33.2626 14.7787 33.3723 14.606 33.4516 14.41C33.5356 14.2093 33.5776 13.9923 33.5776 13.759C33.5776 13.4977 33.5379 13.2643 33.4586 13.059C33.3839 12.8537 33.2766 12.681 33.1366 12.541C32.9966 12.401 32.8263 12.2937 32.6256 12.219C32.4296 12.1443 32.2103 12.107 31.9676 12.107C31.7483 12.107 31.5476 12.1467 31.3656 12.226C31.1836 12.3007 31.0249 12.4103 30.8896 12.555C30.7589 12.6997 30.6563 12.8723 30.5816 13.073C30.5069 13.2737 30.4696 13.5 30.4696 13.752ZM39.1787 13.248L36.8407 9.741H38.9267C39.0807 9.741 39.1927 9.762 39.2627 9.804C39.3374 9.84133 39.4027 9.90667 39.4587 10L40.7537 12.149C40.7817 12.065 40.8167 11.9833 40.8587 11.904C40.9007 11.8247 40.9474 11.7407 40.9987 11.652L41.9227 10.035C41.9834 9.92767 42.051 9.853 42.1257 9.811C42.2004 9.76433 42.2914 9.741 42.3987 9.741H44.3867L42.0487 13.15L44.4847 17H42.3987C42.2447 17 42.121 16.9627 42.0277 16.888C41.9344 16.8133 41.8574 16.7247 41.7967 16.622L40.5017 14.396C40.4784 14.4753 40.4504 14.55 40.4177 14.62C40.385 14.69 40.35 14.7553 40.3127 14.816L39.2487 16.622C39.1927 16.72 39.118 16.8087 39.0247 16.888C38.9314 16.9627 38.8147 17 38.6747 17H36.7427L39.1787 13.248Z" fill="white"/>
</g>
<defs>
<filter id="filter0_d_316_5402" x="13.6519" y="6.68896" width="32.8328" height="14.4231" filterUnits="userSpaceOnUse" color-interpolation-filters="sRGB">
<feFlood flood-opacity="0" result="BackgroundImageFix"/>
<feColorMatrix in="SourceAlpha" type="matrix" values="0 0 0 0 0 0 0 0 0 0 0 0 0 0 0 0 0 0 127 0" result="hardAlpha"/>
<feOffset dy="2"/>
<feGaussianBlur stdDeviation="1"/>
<feColorMatrix type="matrix" values="0 0 0 0 0 0 0 0 0 0 0 0 0 0 0 0 0 0 0.25 0"/>
<feBlend mode="normal" in2="BackgroundImageFix" result="effect1_dropShadow_316_5402"/>
<feBlend mode="normal" in="SourceGraphic" in2="effect1_dropShadow_316_5402" result="shape"/>
</filter>
</defs>
</svg>
