<svg width="60" height="24" viewBox="0 0 60 24" fill="none" xmlns="http://www.w3.org/2000/svg">
<rect width="60" height="24" rx="12" fill="#8E599A"/>
<g filter="url(#filter0_d_316_5416)">
<path d="M18.8714 11.897C18.8714 12.7883 18.7757 13.5607 18.5844 14.214C18.393 14.8673 18.127 15.4087 17.7864 15.838C17.4504 16.2673 17.049 16.587 16.5824 16.797C16.1204 17.007 15.6187 17.112 15.0774 17.112C14.536 17.112 14.0344 17.007 13.5724 16.797C13.115 16.587 12.7184 16.2673 12.3824 15.838C12.0464 15.4087 11.7827 14.8673 11.5914 14.214C11.4047 13.5607 11.3114 12.7883 11.3114 11.897C11.3114 11.0057 11.4047 10.2333 11.5914 9.58C11.7827 8.92667 12.0464 8.38533 12.3824 7.956C12.7184 7.52667 13.115 7.20933 13.5724 7.004C14.0344 6.794 14.536 6.689 15.0774 6.689C15.6187 6.689 16.1204 6.794 16.5824 7.004C17.049 7.20933 17.4504 7.52667 17.7864 7.956C18.127 8.38533 18.393 8.92667 18.5844 9.58C18.7757 10.2333 18.8714 11.0057 18.8714 11.897ZM16.6314 11.897C16.6314 11.1923 16.587 10.616 16.4984 10.168C16.4097 9.71533 16.2907 9.36067 16.1414 9.104C15.9967 8.84733 15.831 8.67233 15.6444 8.579C15.4577 8.481 15.2687 8.432 15.0774 8.432C14.886 8.432 14.697 8.481 14.5104 8.579C14.3284 8.67233 14.165 8.84733 14.0204 9.104C13.8804 9.36067 13.766 9.71533 13.6774 10.168C13.5934 10.616 13.5514 11.1923 13.5514 11.897C13.5514 12.6063 13.5934 13.185 13.6774 13.633C13.766 14.081 13.8804 14.4357 14.0204 14.697C14.165 14.9537 14.3284 15.131 14.5104 15.229C14.697 15.3223 14.886 15.369 15.0774 15.369C15.2687 15.369 15.4577 15.3223 15.6444 15.229C15.831 15.131 15.9967 14.9537 16.1414 14.697C16.2907 14.4357 16.4097 14.081 16.4984 13.633C16.587 13.185 16.6314 12.6063 16.6314 11.897ZM20.1325 15.901C20.1325 15.733 20.1628 15.5767 20.2235 15.432C20.2888 15.2873 20.3751 15.1613 20.4825 15.054C20.5945 14.9467 20.7251 14.8627 20.8745 14.802C21.0238 14.7367 21.1871 14.704 21.3645 14.704C21.5371 14.704 21.6981 14.7367 21.8475 14.802C21.9968 14.8627 22.1275 14.9467 22.2395 15.054C22.3515 15.1613 22.4378 15.2873 22.4985 15.432C22.5638 15.5767 22.5965 15.733 22.5965 15.901C22.5965 16.069 22.5638 16.2277 22.4985 16.377C22.4378 16.5217 22.3515 16.6477 22.2395 16.755C22.1275 16.8623 21.9968 16.9463 21.8475 17.007C21.6981 17.0677 21.5371 17.098 21.3645 17.098C21.1871 17.098 21.0238 17.0677 20.8745 17.007C20.7251 16.9463 20.5945 16.8623 20.4825 16.755C20.3751 16.6477 20.2888 16.5217 20.2235 16.377C20.1628 16.2277 20.1325 16.069 20.1325 15.901ZM27.6411 17.112C27.0997 17.112 26.6051 17.0397 26.1571 16.895C25.7091 16.7503 25.3241 16.5473 25.0021 16.286C24.6847 16.02 24.4374 15.7003 24.2601 15.327C24.0874 14.9537 24.0011 14.5383 24.0011 14.081C24.0011 13.8057 24.0314 13.5467 24.0921 13.304C24.1574 13.0567 24.2577 12.8327 24.3931 12.632C24.5331 12.4267 24.7104 12.2447 24.9251 12.086C25.1444 11.9273 25.4081 11.7943 25.7161 11.687C25.2494 11.477 24.9017 11.1853 24.6731 10.812C24.4491 10.4387 24.3371 9.99067 24.3371 9.468C24.3371 9.07133 24.4187 8.705 24.5821 8.369C24.7454 8.02833 24.9741 7.73433 25.2681 7.487C25.5621 7.23967 25.9097 7.046 26.3111 6.906C26.7171 6.76133 27.1604 6.689 27.6411 6.689C28.1217 6.689 28.5627 6.76133 28.9641 6.906C29.3701 7.046 29.7201 7.23967 30.0141 7.487C30.3081 7.73433 30.5367 8.02833 30.7001 8.369C30.8634 8.705 30.9451 9.07133 30.9451 9.468C30.9451 9.99067 30.8307 10.4387 30.6021 10.812C30.3734 11.1853 30.0281 11.477 29.5661 11.687C29.8694 11.7943 30.1284 11.9273 30.3431 12.086C30.5624 12.2447 30.7397 12.4267 30.8751 12.632C31.0151 12.8327 31.1177 13.0567 31.1831 13.304C31.2484 13.5467 31.2811 13.8057 31.2811 14.081C31.2811 14.5383 31.1924 14.9537 31.0151 15.327C30.8424 15.7003 30.5951 16.02 30.2731 16.286C29.9557 16.5473 29.5731 16.7503 29.1251 16.895C28.6771 17.0397 28.1824 17.112 27.6411 17.112ZM27.6411 15.474C27.8837 15.474 28.0937 15.4367 28.2711 15.362C28.4484 15.2873 28.5931 15.187 28.7051 15.061C28.8217 14.9303 28.9057 14.7787 28.9571 14.606C29.0131 14.4287 29.0411 14.2397 29.0411 14.039C29.0411 13.8197 29.0177 13.619 28.9711 13.437C28.9244 13.255 28.8474 13.101 28.7401 12.975C28.6327 12.8443 28.4881 12.744 28.3061 12.674C28.1287 12.5993 27.9071 12.562 27.6411 12.562C27.3751 12.562 27.1511 12.5993 26.9691 12.674C26.7917 12.744 26.6494 12.8443 26.5421 12.975C26.4347 13.101 26.3577 13.255 26.3111 13.437C26.2644 13.619 26.2411 13.8197 26.2411 14.039C26.2411 14.2397 26.2667 14.4287 26.3181 14.606C26.3741 14.7787 26.4581 14.9303 26.5701 15.061C26.6867 15.187 26.8314 15.2873 27.0041 15.362C27.1814 15.4367 27.3937 15.474 27.6411 15.474ZM27.6411 10.91C27.8837 10.91 28.0821 10.8703 28.2361 10.791C28.3901 10.7117 28.5114 10.6067 28.6001 10.476C28.6887 10.3453 28.7494 10.196 28.7821 10.028C28.8147 9.86 28.8311 9.68733 28.8311 9.51C28.8311 9.35133 28.8101 9.19733 28.7681 9.048C28.7261 8.89867 28.6561 8.768 28.5581 8.656C28.4647 8.53933 28.3411 8.446 28.1871 8.376C28.0377 8.306 27.8557 8.271 27.6411 8.271C27.4217 8.271 27.2374 8.306 27.0881 8.376C26.9387 8.446 26.8151 8.53933 26.7171 8.656C26.6237 8.768 26.5561 8.89867 26.5141 9.048C26.4721 9.19733 26.4511 9.35133 26.4511 9.51C26.4511 9.68733 26.4674 9.86 26.5001 10.028C26.5327 10.196 26.5934 10.3453 26.6821 10.476C26.7707 10.6067 26.8921 10.7117 27.0461 10.791C27.2001 10.8703 27.3984 10.91 27.6411 10.91ZM39.2481 7.697C39.2481 7.84633 39.2248 7.98167 39.1781 8.103C39.1315 8.22433 39.0568 8.33167 38.9541 8.425C38.8561 8.51367 38.7255 8.58367 38.5621 8.635C38.3988 8.68167 38.2028 8.705 37.9741 8.705H35.5381L35.2511 10.392C35.4425 10.3593 35.6268 10.336 35.8041 10.322C35.9815 10.3033 36.1541 10.294 36.3221 10.294C36.8588 10.294 37.3325 10.3757 37.7431 10.539C38.1538 10.7023 38.4991 10.9263 38.7791 11.211C39.0591 11.491 39.2691 11.8223 39.4091 12.205C39.5538 12.583 39.6261 12.989 39.6261 13.423C39.6261 13.969 39.5281 14.4683 39.3321 14.921C39.1408 15.369 38.8725 15.7563 38.5271 16.083C38.1818 16.4097 37.7688 16.664 37.2881 16.846C36.8121 17.0233 36.2895 17.112 35.7201 17.112C35.3888 17.112 35.0715 17.077 34.7681 17.007C34.4695 16.937 34.1871 16.8437 33.9211 16.727C33.6598 16.6057 33.4171 16.468 33.1931 16.314C32.9691 16.1553 32.7661 15.9873 32.5841 15.81L33.2561 14.914C33.3261 14.8207 33.4078 14.7507 33.5011 14.704C33.5945 14.6527 33.6948 14.627 33.8021 14.627C33.9421 14.627 34.0728 14.6667 34.1941 14.746C34.3201 14.8207 34.4555 14.9047 34.6001 14.998C34.7495 15.0867 34.9221 15.1683 35.1181 15.243C35.3141 15.3177 35.5568 15.355 35.8461 15.355C36.1355 15.355 36.3828 15.3083 36.5881 15.215C36.7935 15.117 36.9591 14.9863 37.0851 14.823C37.2158 14.655 37.3091 14.4613 37.3651 14.242C37.4258 14.018 37.4561 13.78 37.4561 13.528C37.4561 13.0333 37.3161 12.6577 37.0361 12.401C36.7561 12.1397 36.3595 12.009 35.8461 12.009C35.3888 12.009 34.9408 12.0953 34.5021 12.268L33.1581 11.904L34.0261 6.801H39.2481V7.697ZM43.5192 13.248L41.1812 9.741H43.2672C43.4212 9.741 43.5332 9.762 43.6032 9.804C43.6779 9.84133 43.7432 9.90667 43.7992 10L45.0942 12.149C45.1222 12.065 45.1572 11.9833 45.1992 11.904C45.2412 11.8247 45.2879 11.7407 45.3392 11.652L46.2632 10.035C46.3239 9.92767 46.3916 9.853 46.4662 9.811C46.5409 9.76433 46.6319 9.741 46.7392 9.741H48.7272L46.3892 13.15L48.8252 17H46.7392C46.5852 17 46.4616 16.9627 46.3682 16.888C46.2749 16.8133 46.1979 16.7247 46.1372 16.622L44.8422 14.396C44.8189 14.4753 44.7909 14.55 44.7582 14.62C44.7256 14.69 44.6906 14.7553 44.6532 14.816L43.5892 16.622C43.5332 16.72 43.4586 16.8087 43.3652 16.888C43.2719 16.9627 43.1552 17 43.0152 17H41.0832L43.5192 13.248Z" fill="white"/>
</g>
<defs>
<filter id="filter0_d_316_5416" x="9.31137" y="6.68896" width="41.5139" height="14.4231" filterUnits="userSpaceOnUse" color-interpolation-filters="sRGB">
<feFlood flood-opacity="0" result="BackgroundImageFix"/>
<feColorMatrix in="SourceAlpha" type="matrix" values="0 0 0 0 0 0 0 0 0 0 0 0 0 0 0 0 0 0 127 0" result="hardAlpha"/>
<feOffset dy="2"/>
<feGaussianBlur stdDeviation="1"/>
<feColorMatrix type="matrix" values="0 0 0 0 0 0 0 0 0 0 0 0 0 0 0 0 0 0 0.25 0"/>
<feBlend mode="normal" in2="BackgroundImageFix" result="effect1_dropShadow_316_5416"/>
<feBlend mode="normal" in="SourceGraphic" in2="effect1_dropShadow_316_5416" result="shape"/>
</filter>
</defs>
</svg>
