<svg width="60" height="24" viewBox="0 0 60 24" fill="none" xmlns="http://www.w3.org/2000/svg">
<rect width="60" height="24" rx="12" fill="#995798"/>
<g filter="url(#filter0_d_316_5422)">
<path d="M18.8714 11.897C18.8714 12.7883 18.7757 13.5607 18.5844 14.214C18.393 14.8673 18.127 15.4087 17.7864 15.838C17.4504 16.2673 17.049 16.587 16.5824 16.797C16.1204 17.007 15.6187 17.112 15.0774 17.112C14.536 17.112 14.0344 17.007 13.5724 16.797C13.115 16.587 12.7184 16.2673 12.3824 15.838C12.0464 15.4087 11.7827 14.8673 11.5914 14.214C11.4047 13.5607 11.3114 12.7883 11.3114 11.897C11.3114 11.0057 11.4047 10.2333 11.5914 9.58C11.7827 8.92667 12.0464 8.38533 12.3824 7.956C12.7184 7.52667 13.115 7.20933 13.5724 7.004C14.0344 6.794 14.536 6.689 15.0774 6.689C15.6187 6.689 16.1204 6.794 16.5824 7.004C17.049 7.20933 17.4504 7.52667 17.7864 7.956C18.127 8.38533 18.393 8.92667 18.5844 9.58C18.7757 10.2333 18.8714 11.0057 18.8714 11.897ZM16.6314 11.897C16.6314 11.1923 16.587 10.616 16.4984 10.168C16.4097 9.71533 16.2907 9.36067 16.1414 9.104C15.9967 8.84733 15.831 8.67233 15.6444 8.579C15.4577 8.481 15.2687 8.432 15.0774 8.432C14.886 8.432 14.697 8.481 14.5104 8.579C14.3284 8.67233 14.165 8.84733 14.0204 9.104C13.8804 9.36067 13.766 9.71533 13.6774 10.168C13.5934 10.616 13.5514 11.1923 13.5514 11.897C13.5514 12.6063 13.5934 13.185 13.6774 13.633C13.766 14.081 13.8804 14.4357 14.0204 14.697C14.165 14.9537 14.3284 15.131 14.5104 15.229C14.697 15.3223 14.886 15.369 15.0774 15.369C15.2687 15.369 15.4577 15.3223 15.6444 15.229C15.831 15.131 15.9967 14.9537 16.1414 14.697C16.2907 14.4357 16.4097 14.081 16.4984 13.633C16.587 13.185 16.6314 12.6063 16.6314 11.897ZM20.1325 15.901C20.1325 15.733 20.1628 15.5767 20.2235 15.432C20.2888 15.2873 20.3751 15.1613 20.4825 15.054C20.5945 14.9467 20.7251 14.8627 20.8745 14.802C21.0238 14.7367 21.1871 14.704 21.3645 14.704C21.5371 14.704 21.6981 14.7367 21.8475 14.802C21.9968 14.8627 22.1275 14.9467 22.2395 15.054C22.3515 15.1613 22.4378 15.2873 22.4985 15.432C22.5638 15.5767 22.5965 15.733 22.5965 15.901C22.5965 16.069 22.5638 16.2277 22.4985 16.377C22.4378 16.5217 22.3515 16.6477 22.2395 16.755C22.1275 16.8623 21.9968 16.9463 21.8475 17.007C21.6981 17.0677 21.5371 17.098 21.3645 17.098C21.1871 17.098 21.0238 17.0677 20.8745 17.007C20.7251 16.9463 20.5945 16.8623 20.4825 16.755C20.3751 16.6477 20.2888 16.5217 20.2235 16.377C20.1628 16.2277 20.1325 16.069 20.1325 15.901ZM27.1651 13.024C26.8337 13.024 26.5024 12.9657 26.1711 12.849C25.8397 12.7277 25.5387 12.5457 25.2681 12.303C25.0021 12.0603 24.7851 11.7547 24.6171 11.386C24.4491 11.0173 24.3651 10.581 24.3651 10.077C24.3651 9.615 24.4491 9.17867 24.6171 8.768C24.7897 8.35733 25.0324 7.998 25.3451 7.69C25.6624 7.382 26.0404 7.13933 26.4791 6.962C26.9177 6.78 27.4077 6.689 27.9491 6.689C28.4997 6.689 28.9921 6.773 29.4261 6.941C29.8601 7.109 30.2264 7.34467 30.5251 7.648C30.8284 7.95133 31.0594 8.313 31.2181 8.733C31.3814 9.14833 31.4631 9.608 31.4631 10.112C31.4631 10.448 31.4351 10.763 31.3791 11.057C31.3277 11.351 31.2531 11.6333 31.1551 11.904C31.0617 12.17 30.9474 12.4267 30.8121 12.674C30.6767 12.9167 30.5251 13.157 30.3571 13.395L28.1591 16.517C28.0657 16.6523 27.9187 16.7667 27.7181 16.86C27.5174 16.9533 27.2911 17 27.0391 17H25.0371L28.2711 13.136C28.3364 13.0567 28.3971 12.982 28.4531 12.912C28.5137 12.8373 28.5721 12.7627 28.6281 12.688C28.4181 12.8 28.1894 12.884 27.9421 12.94C27.6947 12.996 27.4357 13.024 27.1651 13.024ZM29.3911 9.916C29.3911 9.66867 29.3537 9.45167 29.2791 9.265C29.2091 9.07367 29.1087 8.915 28.9781 8.789C28.8521 8.663 28.6981 8.56733 28.5161 8.502C28.3341 8.43667 28.1357 8.404 27.9211 8.404C27.7017 8.404 27.5057 8.44367 27.3331 8.523C27.1651 8.59767 27.0204 8.70267 26.8991 8.838C26.7824 8.97333 26.6914 9.13433 26.6261 9.321C26.5654 9.503 26.5351 9.70133 26.5351 9.916C26.5351 10.9333 27.0064 11.442 27.9491 11.442C28.4111 11.442 28.7657 11.3043 29.0131 11.029C29.2651 10.749 29.3911 10.378 29.3911 9.916ZM39.2481 7.697C39.2481 7.84633 39.2248 7.98167 39.1781 8.103C39.1315 8.22433 39.0568 8.33167 38.9541 8.425C38.8561 8.51367 38.7255 8.58367 38.5621 8.635C38.3988 8.68167 38.2028 8.705 37.9741 8.705H35.5381L35.2511 10.392C35.4425 10.3593 35.6268 10.336 35.8041 10.322C35.9815 10.3033 36.1541 10.294 36.3221 10.294C36.8588 10.294 37.3325 10.3757 37.7431 10.539C38.1538 10.7023 38.4991 10.9263 38.7791 11.211C39.0591 11.491 39.2691 11.8223 39.4091 12.205C39.5538 12.583 39.6261 12.989 39.6261 13.423C39.6261 13.969 39.5281 14.4683 39.3321 14.921C39.1408 15.369 38.8725 15.7563 38.5271 16.083C38.1818 16.4097 37.7688 16.664 37.2881 16.846C36.8121 17.0233 36.2895 17.112 35.7201 17.112C35.3888 17.112 35.0715 17.077 34.7681 17.007C34.4695 16.937 34.1871 16.8437 33.9211 16.727C33.6598 16.6057 33.4171 16.468 33.1931 16.314C32.9691 16.1553 32.7661 15.9873 32.5841 15.81L33.2561 14.914C33.3261 14.8207 33.4078 14.7507 33.5011 14.704C33.5945 14.6527 33.6948 14.627 33.8021 14.627C33.9421 14.627 34.0728 14.6667 34.1941 14.746C34.3201 14.8207 34.4555 14.9047 34.6001 14.998C34.7495 15.0867 34.9221 15.1683 35.1181 15.243C35.3141 15.3177 35.5568 15.355 35.8461 15.355C36.1355 15.355 36.3828 15.3083 36.5881 15.215C36.7935 15.117 36.9591 14.9863 37.0851 14.823C37.2158 14.655 37.3091 14.4613 37.3651 14.242C37.4258 14.018 37.4561 13.78 37.4561 13.528C37.4561 13.0333 37.3161 12.6577 37.0361 12.401C36.7561 12.1397 36.3595 12.009 35.8461 12.009C35.3888 12.009 34.9408 12.0953 34.5021 12.268L33.1581 11.904L34.0261 6.801H39.2481V7.697ZM43.5192 13.248L41.1812 9.741H43.2672C43.4212 9.741 43.5332 9.762 43.6032 9.804C43.6779 9.84133 43.7432 9.90667 43.7992 10L45.0942 12.149C45.1222 12.065 45.1572 11.9833 45.1992 11.904C45.2412 11.8247 45.2879 11.7407 45.3392 11.652L46.2632 10.035C46.3239 9.92767 46.3916 9.853 46.4662 9.811C46.5409 9.76433 46.6319 9.741 46.7392 9.741H48.7272L46.3892 13.15L48.8252 17H46.7392C46.5852 17 46.4616 16.9627 46.3682 16.888C46.2749 16.8133 46.1979 16.7247 46.1372 16.622L44.8422 14.396C44.8189 14.4753 44.7909 14.55 44.7582 14.62C44.7256 14.69 44.6906 14.7553 44.6532 14.816L43.5892 16.622C43.5332 16.72 43.4586 16.8087 43.3652 16.888C43.2719 16.9627 43.1552 17 43.0152 17H41.0832L43.5192 13.248Z" fill="white"/>
</g>
<defs>
<filter id="filter0_d_316_5422" x="9.31137" y="6.68896" width="41.5139" height="14.4231" filterUnits="userSpaceOnUse" color-interpolation-filters="sRGB">
<feFlood flood-opacity="0" result="BackgroundImageFix"/>
<feColorMatrix in="SourceAlpha" type="matrix" values="0 0 0 0 0 0 0 0 0 0 0 0 0 0 0 0 0 0 127 0" result="hardAlpha"/>
<feOffset dy="2"/>
<feGaussianBlur stdDeviation="1"/>
<feColorMatrix type="matrix" values="0 0 0 0 0 0 0 0 0 0 0 0 0 0 0 0 0 0 0.25 0"/>
<feBlend mode="normal" in2="BackgroundImageFix" result="effect1_dropShadow_316_5422"/>
<feBlend mode="normal" in="SourceGraphic" in2="effect1_dropShadow_316_5422" result="shape"/>
</filter>
</defs>
</svg>
