<svg width="60" height="24" viewBox="0 0 60 24" fill="none" xmlns="http://www.w3.org/2000/svg">
<rect x="1.5" y="1.5" width="57" height="21" rx="10.5" stroke="#9E5697" stroke-width="3"/>
<g filter="url(#filter0_d_316_5425)">
<path d="M17.1359 15.432H19.0959V10.287C19.0959 10.035 19.1029 9.77133 19.1169 9.496L17.9619 10.455C17.8872 10.5157 17.8126 10.56 17.7379 10.588C17.6632 10.6113 17.5909 10.623 17.5209 10.623C17.3996 10.623 17.2899 10.5973 17.1919 10.546C17.0986 10.49 17.0286 10.4317 16.9819 10.371L16.2959 9.461L19.4739 6.794H21.2659V15.432H22.9459V17H17.1359V15.432ZM24.473 15.901C24.473 15.733 24.5033 15.5767 24.564 15.432C24.6293 15.2873 24.7157 15.1613 24.823 15.054C24.935 14.9467 25.0657 14.8627 25.215 14.802C25.3643 14.7367 25.5277 14.704 25.705 14.704C25.8777 14.704 26.0387 14.7367 26.188 14.802C26.3373 14.8627 26.468 14.9467 26.58 15.054C26.692 15.1613 26.7783 15.2873 26.839 15.432C26.9043 15.5767 26.937 15.733 26.937 15.901C26.937 16.069 26.9043 16.2277 26.839 16.377C26.7783 16.5217 26.692 16.6477 26.58 16.755C26.468 16.8623 26.3373 16.9463 26.188 17.007C26.0387 17.0677 25.8777 17.098 25.705 17.098C25.5277 17.098 25.3643 17.0677 25.215 17.007C25.0657 16.9463 24.935 16.8623 24.823 16.755C24.7157 16.6477 24.6293 16.5217 24.564 16.377C24.5033 16.2277 24.473 16.069 24.473 15.901ZM35.7616 11.897C35.7616 12.7883 35.6659 13.5607 35.4746 14.214C35.2833 14.8673 35.0173 15.4087 34.6766 15.838C34.3406 16.2673 33.9393 16.587 33.4726 16.797C33.0106 17.007 32.5089 17.112 31.9676 17.112C31.4263 17.112 30.9246 17.007 30.4626 16.797C30.0053 16.587 29.6086 16.2673 29.2726 15.838C28.9366 15.4087 28.6729 14.8673 28.4816 14.214C28.2949 13.5607 28.2016 12.7883 28.2016 11.897C28.2016 11.0057 28.2949 10.2333 28.4816 9.58C28.6729 8.92667 28.9366 8.38533 29.2726 7.956C29.6086 7.52667 30.0053 7.20933 30.4626 7.004C30.9246 6.794 31.4263 6.689 31.9676 6.689C32.5089 6.689 33.0106 6.794 33.4726 7.004C33.9393 7.20933 34.3406 7.52667 34.6766 7.956C35.0173 8.38533 35.2833 8.92667 35.4746 9.58C35.6659 10.2333 35.7616 11.0057 35.7616 11.897ZM33.5216 11.897C33.5216 11.1923 33.4773 10.616 33.3886 10.168C33.2999 9.71533 33.1809 9.36067 33.0316 9.104C32.8869 8.84733 32.7213 8.67233 32.5346 8.579C32.3479 8.481 32.1589 8.432 31.9676 8.432C31.7763 8.432 31.5873 8.481 31.4006 8.579C31.2186 8.67233 31.0553 8.84733 30.9106 9.104C30.7706 9.36067 30.6563 9.71533 30.5676 10.168C30.4836 10.616 30.4416 11.1923 30.4416 11.897C30.4416 12.6063 30.4836 13.185 30.5676 13.633C30.6563 14.081 30.7706 14.4357 30.9106 14.697C31.0553 14.9537 31.2186 15.131 31.4006 15.229C31.5873 15.3223 31.7763 15.369 31.9676 15.369C32.1589 15.369 32.3479 15.3223 32.5346 15.229C32.7213 15.131 32.8869 14.9537 33.0316 14.697C33.1809 14.4357 33.2999 14.081 33.3886 13.633C33.4773 13.185 33.5216 12.6063 33.5216 11.897ZM39.1787 13.248L36.8407 9.741H38.9267C39.0807 9.741 39.1927 9.762 39.2627 9.804C39.3374 9.84133 39.4027 9.90667 39.4587 10L40.7537 12.149C40.7817 12.065 40.8167 11.9833 40.8587 11.904C40.9007 11.8247 40.9474 11.7407 40.9987 11.652L41.9227 10.035C41.9834 9.92767 42.051 9.853 42.1257 9.811C42.2004 9.76433 42.2914 9.741 42.3987 9.741H44.3867L42.0487 13.15L44.4847 17H42.3987C42.2447 17 42.121 16.9627 42.0277 16.888C41.9344 16.8133 41.8574 16.7247 41.7967 16.622L40.5017 14.396C40.4784 14.4753 40.4504 14.55 40.4177 14.62C40.385 14.69 40.35 14.7553 40.3127 14.816L39.2487 16.622C39.1927 16.72 39.118 16.8087 39.0247 16.888C38.9314 16.9627 38.8147 17 38.6747 17H36.7427L39.1787 13.248Z" fill="white"/>
</g>
<defs>
<filter id="filter0_d_316_5425" x="14.2959" y="6.68896" width="32.1888" height="14.4231" filterUnits="userSpaceOnUse" color-interpolation-filters="sRGB">
<feFlood flood-opacity="0" result="BackgroundImageFix"/>
<feColorMatrix in="SourceAlpha" type="matrix" values="0 0 0 0 0 0 0 0 0 0 0 0 0 0 0 0 0 0 127 0" result="hardAlpha"/>
<feOffset dy="2"/>
<feGaussianBlur stdDeviation="1"/>
<feColorMatrix type="matrix" values="0 0 0 0 0 0 0 0 0 0 0 0 0 0 0 0 0 0 0.25 0"/>
<feBlend mode="normal" in2="BackgroundImageFix" result="effect1_dropShadow_316_5425"/>
<feBlend mode="normal" in="SourceGraphic" in2="effect1_dropShadow_316_5425" result="shape"/>
</filter>
</defs>
</svg>
