<svg width="60" height="24" viewBox="0 0 60 24" fill="none" xmlns="http://www.w3.org/2000/svg">
<rect width="60" height="24" rx="12" fill="#AB5394"/>
<g filter="url(#filter0_d_316_5457)">
<path d="M12.7954 15.432H14.7554V10.287C14.7554 10.035 14.7624 9.77133 14.7764 9.496L13.6214 10.455C13.5467 10.5157 13.472 10.56 13.3974 10.588C13.3227 10.6113 13.2504 10.623 13.1804 10.623C13.059 10.623 12.9494 10.5973 12.8514 10.546C12.758 10.49 12.688 10.4317 12.6414 10.371L11.9554 9.461L15.1334 6.794H16.9254V15.432H18.6054V17H12.7954V15.432ZM20.1325 15.901C20.1325 15.733 20.1628 15.5767 20.2235 15.432C20.2888 15.2873 20.3751 15.1613 20.4825 15.054C20.5945 14.9467 20.7251 14.8627 20.8745 14.802C21.0238 14.7367 21.1871 14.704 21.3645 14.704C21.5371 14.704 21.6981 14.7367 21.8475 14.802C21.9968 14.8627 22.1275 14.9467 22.2395 15.054C22.3515 15.1613 22.4378 15.2873 22.4985 15.432C22.5638 15.5767 22.5965 15.733 22.5965 15.901C22.5965 16.069 22.5638 16.2277 22.4985 16.377C22.4378 16.5217 22.3515 16.6477 22.2395 16.755C22.1275 16.8623 21.9968 16.9463 21.8475 17.007C21.6981 17.0677 21.5371 17.098 21.3645 17.098C21.1871 17.098 21.0238 17.0677 20.8745 17.007C20.7251 16.9463 20.5945 16.8623 20.4825 16.755C20.3751 16.6477 20.2888 16.5217 20.2235 16.377C20.1628 16.2277 20.1325 16.069 20.1325 15.901ZM27.7951 6.689C28.2991 6.689 28.7517 6.76367 29.1531 6.913C29.5591 7.05767 29.9044 7.26067 30.1891 7.522C30.4737 7.78333 30.6907 8.096 30.8401 8.46C30.9941 8.81933 31.0711 9.216 31.0711 9.65C31.0711 10.0233 31.0174 10.3687 30.9101 10.686C30.8074 11.0033 30.6651 11.3067 30.4831 11.596C30.3011 11.8807 30.0887 12.1583 29.8461 12.429C29.6081 12.695 29.3537 12.9657 29.0831 13.241L27.0881 15.285C27.3447 15.2103 27.5967 15.152 27.8441 15.11C28.0961 15.0633 28.3317 15.04 28.5511 15.04H30.4551C30.6884 15.04 30.8727 15.1053 31.0081 15.236C31.1434 15.362 31.2111 15.53 31.2111 15.74V17H24.0431V16.3C24.0431 16.1647 24.0711 16.02 24.1271 15.866C24.1831 15.712 24.2811 15.572 24.4211 15.446L27.3611 12.485C27.6131 12.233 27.8324 11.9927 28.0191 11.764C28.2057 11.5353 28.3597 11.3113 28.4811 11.092C28.6024 10.868 28.6934 10.6463 28.7541 10.427C28.8147 10.203 28.8451 9.96733 28.8451 9.72C28.8451 9.314 28.7471 9.00367 28.5511 8.789C28.3597 8.56967 28.0657 8.46 27.6691 8.46C27.5057 8.46 27.3564 8.48333 27.2211 8.53C27.0857 8.57667 26.9644 8.63967 26.8571 8.719C26.7497 8.79833 26.6564 8.89167 26.5771 8.999C26.5024 9.10633 26.4417 9.223 26.3951 9.349C26.3204 9.559 26.2247 9.71067 26.1081 9.804C25.9961 9.89733 25.8421 9.944 25.6461 9.944C25.5994 9.944 25.5481 9.94167 25.4921 9.937C25.4407 9.93233 25.3871 9.92533 25.3311 9.916L24.1831 9.713C24.2577 9.20433 24.4001 8.761 24.6101 8.383C24.8247 8.005 25.0884 7.69 25.4011 7.438C25.7184 7.186 26.0801 6.99933 26.4861 6.878C26.8921 6.752 27.3284 6.689 27.7951 6.689ZM39.2481 7.697C39.2481 7.84633 39.2248 7.98167 39.1781 8.103C39.1315 8.22433 39.0568 8.33167 38.9541 8.425C38.8561 8.51367 38.7255 8.58367 38.5621 8.635C38.3988 8.68167 38.2028 8.705 37.9741 8.705H35.5381L35.2511 10.392C35.4425 10.3593 35.6268 10.336 35.8041 10.322C35.9815 10.3033 36.1541 10.294 36.3221 10.294C36.8588 10.294 37.3325 10.3757 37.7431 10.539C38.1538 10.7023 38.4991 10.9263 38.7791 11.211C39.0591 11.491 39.2691 11.8223 39.4091 12.205C39.5538 12.583 39.6261 12.989 39.6261 13.423C39.6261 13.969 39.5281 14.4683 39.3321 14.921C39.1408 15.369 38.8725 15.7563 38.5271 16.083C38.1818 16.4097 37.7688 16.664 37.2881 16.846C36.8121 17.0233 36.2895 17.112 35.7201 17.112C35.3888 17.112 35.0715 17.077 34.7681 17.007C34.4695 16.937 34.1871 16.8437 33.9211 16.727C33.6598 16.6057 33.4171 16.468 33.1931 16.314C32.9691 16.1553 32.7661 15.9873 32.5841 15.81L33.2561 14.914C33.3261 14.8207 33.4078 14.7507 33.5011 14.704C33.5945 14.6527 33.6948 14.627 33.8021 14.627C33.9421 14.627 34.0728 14.6667 34.1941 14.746C34.3201 14.8207 34.4555 14.9047 34.6001 14.998C34.7495 15.0867 34.9221 15.1683 35.1181 15.243C35.3141 15.3177 35.5568 15.355 35.8461 15.355C36.1355 15.355 36.3828 15.3083 36.5881 15.215C36.7935 15.117 36.9591 14.9863 37.0851 14.823C37.2158 14.655 37.3091 14.4613 37.3651 14.242C37.4258 14.018 37.4561 13.78 37.4561 13.528C37.4561 13.0333 37.3161 12.6577 37.0361 12.401C36.7561 12.1397 36.3595 12.009 35.8461 12.009C35.3888 12.009 34.9408 12.0953 34.5021 12.268L33.1581 11.904L34.0261 6.801H39.2481V7.697ZM43.5192 13.248L41.1812 9.741H43.2672C43.4212 9.741 43.5332 9.762 43.6032 9.804C43.6779 9.84133 43.7432 9.90667 43.7992 10L45.0942 12.149C45.1222 12.065 45.1572 11.9833 45.1992 11.904C45.2412 11.8247 45.2879 11.7407 45.3392 11.652L46.2632 10.035C46.3239 9.92767 46.3916 9.853 46.4662 9.811C46.5409 9.76433 46.6319 9.741 46.7392 9.741H48.7272L46.3892 13.15L48.8252 17H46.7392C46.5852 17 46.4616 16.9627 46.3682 16.888C46.2749 16.8133 46.1979 16.7247 46.1372 16.622L44.8422 14.396C44.8189 14.4753 44.7909 14.55 44.7582 14.62C44.7256 14.69 44.6906 14.7553 44.6532 14.816L43.5892 16.622C43.5332 16.72 43.4586 16.8087 43.3652 16.888C43.2719 16.9627 43.1552 17 43.0152 17H41.0832L43.5192 13.248Z" fill="white"/>
</g>
<defs>
<filter id="filter0_d_316_5457" x="9.95537" y="6.68903" width="40.8699" height="14.423" filterUnits="userSpaceOnUse" color-interpolation-filters="sRGB">
<feFlood flood-opacity="0" result="BackgroundImageFix"/>
<feColorMatrix in="SourceAlpha" type="matrix" values="0 0 0 0 0 0 0 0 0 0 0 0 0 0 0 0 0 0 127 0" result="hardAlpha"/>
<feOffset dy="2"/>
<feGaussianBlur stdDeviation="1"/>
<feColorMatrix type="matrix" values="0 0 0 0 0 0 0 0 0 0 0 0 0 0 0 0 0 0 0.25 0"/>
<feBlend mode="normal" in2="BackgroundImageFix" result="effect1_dropShadow_316_5457"/>
<feBlend mode="normal" in="SourceGraphic" in2="effect1_dropShadow_316_5457" result="shape"/>
</filter>
</defs>
</svg>
