<svg width="60" height="24" viewBox="0 0 60 24" fill="none" xmlns="http://www.w3.org/2000/svg">
<rect width="60" height="24" rx="12" fill="#A95394"/>
<g filter="url(#filter0_d_316_5451)">
<path d="M17.1359 15.432H19.0959V10.287C19.0959 10.035 19.1029 9.77133 19.1169 9.496L17.9619 10.455C17.8872 10.5157 17.8126 10.56 17.7379 10.588C17.6632 10.6113 17.5909 10.623 17.5209 10.623C17.3996 10.623 17.2899 10.5973 17.1919 10.546C17.0986 10.49 17.0286 10.4317 16.9819 10.371L16.2959 9.461L19.4739 6.794H21.2659V15.432H22.9459V17H17.1359V15.432ZM24.473 15.901C24.473 15.733 24.5033 15.5767 24.564 15.432C24.6293 15.2873 24.7157 15.1613 24.823 15.054C24.935 14.9467 25.0657 14.8627 25.215 14.802C25.3643 14.7367 25.5277 14.704 25.705 14.704C25.8777 14.704 26.0387 14.7367 26.188 14.802C26.3373 14.8627 26.468 14.9467 26.58 15.054C26.692 15.1613 26.7783 15.2873 26.839 15.432C26.9043 15.5767 26.937 15.733 26.937 15.901C26.937 16.069 26.9043 16.2277 26.839 16.377C26.7783 16.5217 26.692 16.6477 26.58 16.755C26.468 16.8623 26.3373 16.9463 26.188 17.007C26.0387 17.0677 25.8777 17.098 25.705 17.098C25.5277 17.098 25.3643 17.0677 25.215 17.007C25.0657 16.9463 24.935 16.8623 24.823 16.755C24.7157 16.6477 24.6293 16.5217 24.564 16.377C24.5033 16.2277 24.473 16.069 24.473 15.901ZM32.1356 6.689C32.6396 6.689 33.0923 6.76367 33.4936 6.913C33.8996 7.05767 34.2449 7.26067 34.5296 7.522C34.8143 7.78333 35.0313 8.096 35.1806 8.46C35.3346 8.81933 35.4116 9.216 35.4116 9.65C35.4116 10.0233 35.3579 10.3687 35.2506 10.686C35.1479 11.0033 35.0056 11.3067 34.8236 11.596C34.6416 11.8807 34.4293 12.1583 34.1866 12.429C33.9486 12.695 33.6943 12.9657 33.4236 13.241L31.4286 15.285C31.6853 15.2103 31.9373 15.152 32.1846 15.11C32.4366 15.0633 32.6723 15.04 32.8916 15.04H34.7956C35.0289 15.04 35.2133 15.1053 35.3486 15.236C35.4839 15.362 35.5516 15.53 35.5516 15.74V17H28.3836V16.3C28.3836 16.1647 28.4116 16.02 28.4676 15.866C28.5236 15.712 28.6216 15.572 28.7616 15.446L31.7016 12.485C31.9536 12.233 32.1729 11.9927 32.3596 11.764C32.5463 11.5353 32.7003 11.3113 32.8216 11.092C32.9429 10.868 33.0339 10.6463 33.0946 10.427C33.1553 10.203 33.1856 9.96733 33.1856 9.72C33.1856 9.314 33.0876 9.00367 32.8916 8.789C32.7003 8.56967 32.4063 8.46 32.0096 8.46C31.8463 8.46 31.6969 8.48333 31.5616 8.53C31.4263 8.57667 31.3049 8.63967 31.1976 8.719C31.0903 8.79833 30.9969 8.89167 30.9176 8.999C30.8429 9.10633 30.7823 9.223 30.7356 9.349C30.6609 9.559 30.5653 9.71067 30.4486 9.804C30.3366 9.89733 30.1826 9.944 29.9866 9.944C29.9399 9.944 29.8886 9.94167 29.8326 9.937C29.7813 9.93233 29.7276 9.92533 29.6716 9.916L28.5236 9.713C28.5983 9.20433 28.7406 8.761 28.9506 8.383C29.1653 8.005 29.4289 7.69 29.7416 7.438C30.0589 7.186 30.4206 6.99933 30.8266 6.878C31.2326 6.752 31.6689 6.689 32.1356 6.689ZM39.1787 13.248L36.8407 9.741H38.9267C39.0807 9.741 39.1927 9.762 39.2627 9.804C39.3374 9.84133 39.4027 9.90667 39.4587 10L40.7537 12.149C40.7817 12.065 40.8167 11.9833 40.8587 11.904C40.9007 11.8247 40.9474 11.7407 40.9987 11.652L41.9227 10.035C41.9834 9.92767 42.051 9.853 42.1257 9.811C42.2004 9.76433 42.2914 9.741 42.3987 9.741H44.3867L42.0487 13.15L44.4847 17H42.3987C42.2447 17 42.121 16.9627 42.0277 16.888C41.9344 16.8133 41.8574 16.7247 41.7967 16.622L40.5017 14.396C40.4784 14.4753 40.4504 14.55 40.4177 14.62C40.385 14.69 40.35 14.7553 40.3127 14.816L39.2487 16.622C39.1927 16.72 39.118 16.8087 39.0247 16.888C38.9314 16.9627 38.8147 17 38.6747 17H36.7427L39.1787 13.248Z" fill="white"/>
</g>
<defs>
<filter id="filter0_d_316_5451" x="14.2959" y="6.68903" width="32.1888" height="14.409" filterUnits="userSpaceOnUse" color-interpolation-filters="sRGB">
<feFlood flood-opacity="0" result="BackgroundImageFix"/>
<feColorMatrix in="SourceAlpha" type="matrix" values="0 0 0 0 0 0 0 0 0 0 0 0 0 0 0 0 0 0 127 0" result="hardAlpha"/>
<feOffset dy="2"/>
<feGaussianBlur stdDeviation="1"/>
<feColorMatrix type="matrix" values="0 0 0 0 0 0 0 0 0 0 0 0 0 0 0 0 0 0 0.25 0"/>
<feBlend mode="normal" in2="BackgroundImageFix" result="effect1_dropShadow_316_5451"/>
<feBlend mode="normal" in="SourceGraphic" in2="effect1_dropShadow_316_5451" result="shape"/>
</filter>
</defs>
</svg>
