<svg width="60" height="24" viewBox="0 0 60 24" fill="none" xmlns="http://www.w3.org/2000/svg">
<rect width="60" height="24" rx="12" fill="#AE5293"/>
<g filter="url(#filter0_d_316_5460)">
<path d="M17.1359 15.432H19.0959V10.287C19.0959 10.035 19.1029 9.77133 19.1169 9.496L17.9619 10.455C17.8872 10.5157 17.8126 10.56 17.7379 10.588C17.6632 10.6113 17.5909 10.623 17.5209 10.623C17.3996 10.623 17.2899 10.5973 17.1919 10.546C17.0986 10.49 17.0286 10.4317 16.9819 10.371L16.2959 9.461L19.4739 6.794H21.2659V15.432H22.9459V17H17.1359V15.432ZM24.473 15.901C24.473 15.733 24.5033 15.5767 24.564 15.432C24.6293 15.2873 24.7157 15.1613 24.823 15.054C24.935 14.9467 25.0657 14.8627 25.215 14.802C25.3643 14.7367 25.5277 14.704 25.705 14.704C25.8777 14.704 26.0387 14.7367 26.188 14.802C26.3373 14.8627 26.468 14.9467 26.58 15.054C26.692 15.1613 26.7783 15.2873 26.839 15.432C26.9043 15.5767 26.937 15.733 26.937 15.901C26.937 16.069 26.9043 16.2277 26.839 16.377C26.7783 16.5217 26.692 16.6477 26.58 16.755C26.468 16.8623 26.3373 16.9463 26.188 17.007C26.0387 17.0677 25.8777 17.098 25.705 17.098C25.5277 17.098 25.3643 17.0677 25.215 17.007C25.0657 16.9463 24.935 16.8623 24.823 16.755C24.7157 16.6477 24.6293 16.5217 24.564 16.377C24.5033 16.2277 24.473 16.069 24.473 15.901ZM32.3316 6.689C32.8356 6.689 33.2836 6.76133 33.6756 6.906C34.0676 7.046 34.3989 7.23733 34.6696 7.48C34.9403 7.72267 35.1456 8.005 35.2856 8.327C35.4256 8.64433 35.4956 8.98033 35.4956 9.335C35.4956 9.657 35.4629 9.94167 35.3976 10.189C35.3323 10.4317 35.2343 10.644 35.1036 10.826C34.9776 11.0033 34.8189 11.155 34.6276 11.281C34.4409 11.407 34.2263 11.512 33.9836 11.596C35.1129 11.988 35.6776 12.7557 35.6776 13.899C35.6776 14.4403 35.5796 14.9117 35.3836 15.313C35.1876 15.7143 34.9239 16.048 34.5926 16.314C34.2659 16.58 33.8856 16.7807 33.4516 16.916C33.0176 17.0467 32.5649 17.112 32.0936 17.112C31.6083 17.112 31.1766 17.0607 30.7986 16.958C30.4206 16.8507 30.0846 16.6873 29.7906 16.468C29.4966 16.244 29.2376 15.9593 29.0136 15.614C28.7943 15.2687 28.6029 14.858 28.4396 14.382L29.4056 13.99C29.4896 13.9527 29.5713 13.927 29.6506 13.913C29.7346 13.899 29.8163 13.892 29.8956 13.892C30.0449 13.892 30.1779 13.9223 30.2946 13.983C30.4159 14.039 30.5069 14.123 30.5676 14.235C30.7776 14.6223 30.9993 14.9047 31.2326 15.082C31.4706 15.2547 31.7483 15.341 32.0656 15.341C32.3083 15.341 32.5183 15.3013 32.6956 15.222C32.8776 15.138 33.0269 15.033 33.1436 14.907C33.2649 14.7763 33.3559 14.6293 33.4166 14.466C33.4773 14.3027 33.5076 14.137 33.5076 13.969C33.5076 13.7497 33.4913 13.5537 33.4586 13.381C33.4306 13.2037 33.3466 13.052 33.2066 12.926C33.0666 12.8 32.8543 12.7043 32.5696 12.639C32.2896 12.569 31.8976 12.534 31.3936 12.534V11.036C31.8183 11.036 32.1613 11.0033 32.4226 10.938C32.6839 10.8727 32.8846 10.784 33.0246 10.672C33.1693 10.5553 33.2649 10.4153 33.3116 10.252C33.3583 10.0887 33.3816 9.909 33.3816 9.713C33.3816 9.31167 33.2836 9.00367 33.0876 8.789C32.8963 8.56967 32.6023 8.46 32.2056 8.46C32.0423 8.46 31.8929 8.48333 31.7576 8.53C31.6223 8.57667 31.5009 8.63967 31.3936 8.719C31.2863 8.79833 31.1929 8.89167 31.1136 8.999C31.0389 9.10633 30.9783 9.223 30.9316 9.349C30.8569 9.559 30.7613 9.71067 30.6446 9.804C30.5326 9.89733 30.3786 9.944 30.1826 9.944C30.1359 9.944 30.0846 9.94167 30.0286 9.937C29.9773 9.93233 29.9236 9.92533 29.8676 9.916L28.7196 9.713C28.7943 9.20433 28.9366 8.761 29.1466 8.383C29.3613 8.005 29.6249 7.69 29.9376 7.438C30.2549 7.186 30.6166 6.99933 31.0226 6.878C31.4286 6.752 31.8649 6.689 32.3316 6.689ZM39.1787 13.248L36.8407 9.741H38.9267C39.0807 9.741 39.1927 9.762 39.2627 9.804C39.3374 9.84133 39.4027 9.90667 39.4587 10L40.7537 12.149C40.7817 12.065 40.8167 11.9833 40.8587 11.904C40.9007 11.8247 40.9474 11.7407 40.9987 11.652L41.9227 10.035C41.9834 9.92767 42.051 9.853 42.1257 9.811C42.2004 9.76433 42.2914 9.741 42.3987 9.741H44.3867L42.0487 13.15L44.4847 17H42.3987C42.2447 17 42.121 16.9627 42.0277 16.888C41.9344 16.8133 41.8574 16.7247 41.7967 16.622L40.5017 14.396C40.4784 14.4753 40.4504 14.55 40.4177 14.62C40.385 14.69 40.35 14.7553 40.3127 14.816L39.2487 16.622C39.1927 16.72 39.118 16.8087 39.0247 16.888C38.9314 16.9627 38.8147 17 38.6747 17H36.7427L39.1787 13.248Z" fill="white"/>
</g>
<defs>
<filter id="filter0_d_316_5460" x="14.2959" y="6.68903" width="32.1888" height="14.423" filterUnits="userSpaceOnUse" color-interpolation-filters="sRGB">
<feFlood flood-opacity="0" result="BackgroundImageFix"/>
<feColorMatrix in="SourceAlpha" type="matrix" values="0 0 0 0 0 0 0 0 0 0 0 0 0 0 0 0 0 0 127 0" result="hardAlpha"/>
<feOffset dy="2"/>
<feGaussianBlur stdDeviation="1"/>
<feColorMatrix type="matrix" values="0 0 0 0 0 0 0 0 0 0 0 0 0 0 0 0 0 0 0.25 0"/>
<feBlend mode="normal" in2="BackgroundImageFix" result="effect1_dropShadow_316_5460"/>
<feBlend mode="normal" in="SourceGraphic" in2="effect1_dropShadow_316_5460" result="shape"/>
</filter>
</defs>
</svg>
