<svg width="60" height="24" viewBox="0 0 60 24" fill="none" xmlns="http://www.w3.org/2000/svg">
<rect width="60" height="24" rx="12" fill="#B85091"/>
<g filter="url(#filter0_d_316_5472)">
<path d="M17.1359 15.432H19.0959V10.287C19.0959 10.035 19.1029 9.77133 19.1169 9.496L17.9619 10.455C17.8872 10.5157 17.8126 10.56 17.7379 10.588C17.6632 10.6113 17.5909 10.623 17.5209 10.623C17.3996 10.623 17.2899 10.5973 17.1919 10.546C17.0986 10.49 17.0286 10.4317 16.9819 10.371L16.2959 9.461L19.4739 6.794H21.2659V15.432H22.9459V17H17.1359V15.432ZM24.473 15.901C24.473 15.733 24.5033 15.5767 24.564 15.432C24.6293 15.2873 24.7157 15.1613 24.823 15.054C24.935 14.9467 25.0657 14.8627 25.215 14.802C25.3643 14.7367 25.5277 14.704 25.705 14.704C25.8777 14.704 26.0387 14.7367 26.188 14.802C26.3373 14.8627 26.468 14.9467 26.58 15.054C26.692 15.1613 26.7783 15.2873 26.839 15.432C26.9043 15.5767 26.937 15.733 26.937 15.901C26.937 16.069 26.9043 16.2277 26.839 16.377C26.7783 16.5217 26.692 16.6477 26.58 16.755C26.468 16.8623 26.3373 16.9463 26.188 17.007C26.0387 17.0677 25.8777 17.098 25.705 17.098C25.5277 17.098 25.3643 17.0677 25.215 17.007C25.0657 16.9463 24.935 16.8623 24.823 16.755C24.7157 16.6477 24.6293 16.5217 24.564 16.377C24.5033 16.2277 24.473 16.069 24.473 15.901ZM34.9076 7.697C34.9076 7.84633 34.8843 7.98167 34.8376 8.103C34.7909 8.22433 34.7163 8.33167 34.6136 8.425C34.5156 8.51367 34.3849 8.58367 34.2216 8.635C34.0583 8.68167 33.8623 8.705 33.6336 8.705H31.1976L30.9106 10.392C31.1019 10.3593 31.2863 10.336 31.4636 10.322C31.6409 10.3033 31.8136 10.294 31.9816 10.294C32.5183 10.294 32.9919 10.3757 33.4026 10.539C33.8133 10.7023 34.1586 10.9263 34.4386 11.211C34.7186 11.491 34.9286 11.8223 35.0686 12.205C35.2133 12.583 35.2856 12.989 35.2856 13.423C35.2856 13.969 35.1876 14.4683 34.9916 14.921C34.8003 15.369 34.5319 15.7563 34.1866 16.083C33.8413 16.4097 33.4283 16.664 32.9476 16.846C32.4716 17.0233 31.9489 17.112 31.3796 17.112C31.0483 17.112 30.7309 17.077 30.4276 17.007C30.1289 16.937 29.8466 16.8437 29.5806 16.727C29.3193 16.6057 29.0766 16.468 28.8526 16.314C28.6286 16.1553 28.4256 15.9873 28.2436 15.81L28.9156 14.914C28.9856 14.8207 29.0673 14.7507 29.1606 14.704C29.2539 14.6527 29.3543 14.627 29.4616 14.627C29.6016 14.627 29.7323 14.6667 29.8536 14.746C29.9796 14.8207 30.1149 14.9047 30.2596 14.998C30.4089 15.0867 30.5816 15.1683 30.7776 15.243C30.9736 15.3177 31.2163 15.355 31.5056 15.355C31.7949 15.355 32.0423 15.3083 32.2476 15.215C32.4529 15.117 32.6186 14.9863 32.7446 14.823C32.8753 14.655 32.9686 14.4613 33.0246 14.242C33.0853 14.018 33.1156 13.78 33.1156 13.528C33.1156 13.0333 32.9756 12.6577 32.6956 12.401C32.4156 12.1397 32.0189 12.009 31.5056 12.009C31.0483 12.009 30.6003 12.0953 30.1616 12.268L28.8176 11.904L29.6856 6.801H34.9076V7.697ZM39.1787 13.248L36.8407 9.741H38.9267C39.0807 9.741 39.1927 9.762 39.2627 9.804C39.3374 9.84133 39.4027 9.90667 39.4587 10L40.7537 12.149C40.7817 12.065 40.8167 11.9833 40.8587 11.904C40.9007 11.8247 40.9474 11.7407 40.9987 11.652L41.9227 10.035C41.9834 9.92767 42.051 9.853 42.1257 9.811C42.2004 9.76433 42.2914 9.741 42.3987 9.741H44.3867L42.0487 13.15L44.4847 17H42.3987C42.2447 17 42.121 16.9627 42.0277 16.888C41.9344 16.8133 41.8574 16.7247 41.7967 16.622L40.5017 14.396C40.4784 14.4753 40.4504 14.55 40.4177 14.62C40.385 14.69 40.35 14.7553 40.3127 14.816L39.2487 16.622C39.1927 16.72 39.118 16.8087 39.0247 16.888C38.9314 16.9627 38.8147 17 38.6747 17H36.7427L39.1787 13.248Z" fill="white"/>
</g>
<defs>
<filter id="filter0_d_316_5472" x="14.2959" y="6.79401" width="32.1888" height="14.318" filterUnits="userSpaceOnUse" color-interpolation-filters="sRGB">
<feFlood flood-opacity="0" result="BackgroundImageFix"/>
<feColorMatrix in="SourceAlpha" type="matrix" values="0 0 0 0 0 0 0 0 0 0 0 0 0 0 0 0 0 0 127 0" result="hardAlpha"/>
<feOffset dy="2"/>
<feGaussianBlur stdDeviation="1"/>
<feColorMatrix type="matrix" values="0 0 0 0 0 0 0 0 0 0 0 0 0 0 0 0 0 0 0.25 0"/>
<feBlend mode="normal" in2="BackgroundImageFix" result="effect1_dropShadow_316_5472"/>
<feBlend mode="normal" in="SourceGraphic" in2="effect1_dropShadow_316_5472" result="shape"/>
</filter>
</defs>
</svg>
