<svg width="60" height="24" viewBox="0 0 60 24" fill="none" xmlns="http://www.w3.org/2000/svg">
<rect width="60" height="24" rx="12" fill="#C54D8E"/>
<g filter="url(#filter0_d_316_5493)">
<path d="M12.7954 15.432H14.7554V10.287C14.7554 10.035 14.7624 9.77133 14.7764 9.496L13.6214 10.455C13.5467 10.5157 13.472 10.56 13.3974 10.588C13.3227 10.6113 13.2504 10.623 13.1804 10.623C13.059 10.623 12.9494 10.5973 12.8514 10.546C12.758 10.49 12.688 10.4317 12.6414 10.371L11.9554 9.461L15.1334 6.794H16.9254V15.432H18.6054V17H12.7954V15.432ZM20.1325 15.901C20.1325 15.733 20.1628 15.5767 20.2235 15.432C20.2888 15.2873 20.3751 15.1613 20.4825 15.054C20.5945 14.9467 20.7251 14.8627 20.8745 14.802C21.0238 14.7367 21.1871 14.704 21.3645 14.704C21.5371 14.704 21.6981 14.7367 21.8475 14.802C21.9968 14.8627 22.1275 14.9467 22.2395 15.054C22.3515 15.1613 22.4378 15.2873 22.4985 15.432C22.5638 15.5767 22.5965 15.733 22.5965 15.901C22.5965 16.069 22.5638 16.2277 22.4985 16.377C22.4378 16.5217 22.3515 16.6477 22.2395 16.755C22.1275 16.8623 21.9968 16.9463 21.8475 17.007C21.6981 17.0677 21.5371 17.098 21.3645 17.098C21.1871 17.098 21.0238 17.0677 20.8745 17.007C20.7251 16.9463 20.5945 16.8623 20.4825 16.755C20.3751 16.6477 20.2888 16.5217 20.2235 16.377C20.1628 16.2277 20.1325 16.069 20.1325 15.901ZM31.3231 6.801V7.711C31.3231 7.96767 31.2951 8.17533 31.2391 8.334C31.1831 8.49267 31.1294 8.628 31.0781 8.74L27.5151 16.286C27.4217 16.4867 27.2841 16.657 27.1021 16.797C26.9201 16.9323 26.6797 17 26.3811 17H24.7991L28.4391 9.699C28.5371 9.49833 28.6421 9.31867 28.7541 9.16C28.8707 9.00133 28.9967 8.84967 29.1321 8.705H24.6451C24.5797 8.705 24.5167 8.69333 24.4561 8.67C24.4001 8.642 24.3487 8.607 24.3021 8.565C24.2601 8.51833 24.2251 8.467 24.1971 8.411C24.1691 8.35033 24.1551 8.28967 24.1551 8.229V6.801H31.3231ZM39.2481 7.697C39.2481 7.84633 39.2248 7.98167 39.1781 8.103C39.1315 8.22433 39.0568 8.33167 38.9541 8.425C38.8561 8.51367 38.7255 8.58367 38.5621 8.635C38.3988 8.68167 38.2028 8.705 37.9741 8.705H35.5381L35.2511 10.392C35.4425 10.3593 35.6268 10.336 35.8041 10.322C35.9815 10.3033 36.1541 10.294 36.3221 10.294C36.8588 10.294 37.3325 10.3757 37.7431 10.539C38.1538 10.7023 38.4991 10.9263 38.7791 11.211C39.0591 11.491 39.2691 11.8223 39.4091 12.205C39.5538 12.583 39.6261 12.989 39.6261 13.423C39.6261 13.969 39.5281 14.4683 39.3321 14.921C39.1408 15.369 38.8725 15.7563 38.5271 16.083C38.1818 16.4097 37.7688 16.664 37.2881 16.846C36.8121 17.0233 36.2895 17.112 35.7201 17.112C35.3888 17.112 35.0715 17.077 34.7681 17.007C34.4695 16.937 34.1871 16.8437 33.9211 16.727C33.6598 16.6057 33.4171 16.468 33.1931 16.314C32.9691 16.1553 32.7661 15.9873 32.5841 15.81L33.2561 14.914C33.3261 14.8207 33.4078 14.7507 33.5011 14.704C33.5945 14.6527 33.6948 14.627 33.8021 14.627C33.9421 14.627 34.0728 14.6667 34.1941 14.746C34.3201 14.8207 34.4555 14.9047 34.6001 14.998C34.7495 15.0867 34.9221 15.1683 35.1181 15.243C35.3141 15.3177 35.5568 15.355 35.8461 15.355C36.1355 15.355 36.3828 15.3083 36.5881 15.215C36.7935 15.117 36.9591 14.9863 37.0851 14.823C37.2158 14.655 37.3091 14.4613 37.3651 14.242C37.4258 14.018 37.4561 13.78 37.4561 13.528C37.4561 13.0333 37.3161 12.6577 37.0361 12.401C36.7561 12.1397 36.3595 12.009 35.8461 12.009C35.3888 12.009 34.9408 12.0953 34.5021 12.268L33.1581 11.904L34.0261 6.801H39.2481V7.697ZM43.5192 13.248L41.1812 9.741H43.2672C43.4212 9.741 43.5332 9.762 43.6032 9.804C43.6779 9.84133 43.7432 9.90667 43.7992 10L45.0942 12.149C45.1222 12.065 45.1572 11.9833 45.1992 11.904C45.2412 11.8247 45.2879 11.7407 45.3392 11.652L46.2632 10.035C46.3239 9.92767 46.3916 9.853 46.4662 9.811C46.5409 9.76433 46.6319 9.741 46.7392 9.741H48.7272L46.3892 13.15L48.8252 17H46.7392C46.5852 17 46.4616 16.9627 46.3682 16.888C46.2749 16.8133 46.1979 16.7247 46.1372 16.622L44.8422 14.396C44.8189 14.4753 44.7909 14.55 44.7582 14.62C44.7256 14.69 44.6906 14.7553 44.6532 14.816L43.5892 16.622C43.5332 16.72 43.4586 16.8087 43.3652 16.888C43.2719 16.9627 43.1552 17 43.0152 17H41.0832L43.5192 13.248Z" fill="white"/>
</g>
<defs>
<filter id="filter0_d_316_5493" x="9.95537" y="6.79401" width="40.8699" height="14.318" filterUnits="userSpaceOnUse" color-interpolation-filters="sRGB">
<feFlood flood-opacity="0" result="BackgroundImageFix"/>
<feColorMatrix in="SourceAlpha" type="matrix" values="0 0 0 0 0 0 0 0 0 0 0 0 0 0 0 0 0 0 127 0" result="hardAlpha"/>
<feOffset dy="2"/>
<feGaussianBlur stdDeviation="1"/>
<feColorMatrix type="matrix" values="0 0 0 0 0 0 0 0 0 0 0 0 0 0 0 0 0 0 0.25 0"/>
<feBlend mode="normal" in2="BackgroundImageFix" result="effect1_dropShadow_316_5493"/>
<feBlend mode="normal" in="SourceGraphic" in2="effect1_dropShadow_316_5493" result="shape"/>
</filter>
</defs>
</svg>
