<svg width="60" height="24" viewBox="0 0 60 24" fill="none" xmlns="http://www.w3.org/2000/svg">
<rect width="60" height="24" rx="12" fill="#C84D8E"/>
<g filter="url(#filter0_d_316_5496)">
<path d="M17.1359 15.432H19.0959V10.287C19.0959 10.035 19.1029 9.77133 19.1169 9.496L17.9619 10.455C17.8872 10.5157 17.8126 10.56 17.7379 10.588C17.6632 10.6113 17.5909 10.623 17.5209 10.623C17.3996 10.623 17.2899 10.5973 17.1919 10.546C17.0986 10.49 17.0286 10.4317 16.9819 10.371L16.2959 9.461L19.4739 6.794H21.2659V15.432H22.9459V17H17.1359V15.432ZM24.473 15.901C24.473 15.733 24.5033 15.5767 24.564 15.432C24.6293 15.2873 24.7157 15.1613 24.823 15.054C24.935 14.9467 25.0657 14.8627 25.215 14.802C25.3643 14.7367 25.5277 14.704 25.705 14.704C25.8777 14.704 26.0387 14.7367 26.188 14.802C26.3373 14.8627 26.468 14.9467 26.58 15.054C26.692 15.1613 26.7783 15.2873 26.839 15.432C26.9043 15.5767 26.937 15.733 26.937 15.901C26.937 16.069 26.9043 16.2277 26.839 16.377C26.7783 16.5217 26.692 16.6477 26.58 16.755C26.468 16.8623 26.3373 16.9463 26.188 17.007C26.0387 17.0677 25.8777 17.098 25.705 17.098C25.5277 17.098 25.3643 17.0677 25.215 17.007C25.0657 16.9463 24.935 16.8623 24.823 16.755C24.7157 16.6477 24.6293 16.5217 24.564 16.377C24.5033 16.2277 24.473 16.069 24.473 15.901ZM31.9816 17.112C31.4403 17.112 30.9456 17.0397 30.4976 16.895C30.0496 16.7503 29.6646 16.5473 29.3426 16.286C29.0253 16.02 28.7779 15.7003 28.6006 15.327C28.4279 14.9537 28.3416 14.5383 28.3416 14.081C28.3416 13.8057 28.3719 13.5467 28.4326 13.304C28.4979 13.0567 28.5983 12.8327 28.7336 12.632C28.8736 12.4267 29.0509 12.2447 29.2656 12.086C29.4849 11.9273 29.7486 11.7943 30.0566 11.687C29.5899 11.477 29.2423 11.1853 29.0136 10.812C28.7896 10.4387 28.6776 9.99067 28.6776 9.468C28.6776 9.07133 28.7593 8.705 28.9226 8.369C29.0859 8.02833 29.3146 7.73433 29.6086 7.487C29.9026 7.23967 30.2503 7.046 30.6516 6.906C31.0576 6.76133 31.5009 6.689 31.9816 6.689C32.4623 6.689 32.9033 6.76133 33.3046 6.906C33.7106 7.046 34.0606 7.23967 34.3546 7.487C34.6486 7.73433 34.8773 8.02833 35.0406 8.369C35.2039 8.705 35.2856 9.07133 35.2856 9.468C35.2856 9.99067 35.1713 10.4387 34.9426 10.812C34.7139 11.1853 34.3686 11.477 33.9066 11.687C34.2099 11.7943 34.4689 11.9273 34.6836 12.086C34.9029 12.2447 35.0803 12.4267 35.2156 12.632C35.3556 12.8327 35.4583 13.0567 35.5236 13.304C35.5889 13.5467 35.6216 13.8057 35.6216 14.081C35.6216 14.5383 35.5329 14.9537 35.3556 15.327C35.1829 15.7003 34.9356 16.02 34.6136 16.286C34.2963 16.5473 33.9136 16.7503 33.4656 16.895C33.0176 17.0397 32.5229 17.112 31.9816 17.112ZM31.9816 15.474C32.2243 15.474 32.4343 15.4367 32.6116 15.362C32.7889 15.2873 32.9336 15.187 33.0456 15.061C33.1623 14.9303 33.2463 14.7787 33.2976 14.606C33.3536 14.4287 33.3816 14.2397 33.3816 14.039C33.3816 13.8197 33.3583 13.619 33.3116 13.437C33.2649 13.255 33.1879 13.101 33.0806 12.975C32.9733 12.8443 32.8286 12.744 32.6466 12.674C32.4693 12.5993 32.2476 12.562 31.9816 12.562C31.7156 12.562 31.4916 12.5993 31.3096 12.674C31.1323 12.744 30.9899 12.8443 30.8826 12.975C30.7753 13.101 30.6983 13.255 30.6516 13.437C30.6049 13.619 30.5816 13.8197 30.5816 14.039C30.5816 14.2397 30.6073 14.4287 30.6586 14.606C30.7146 14.7787 30.7986 14.9303 30.9106 15.061C31.0273 15.187 31.1719 15.2873 31.3446 15.362C31.5219 15.4367 31.7343 15.474 31.9816 15.474ZM31.9816 10.91C32.2243 10.91 32.4226 10.8703 32.5766 10.791C32.7306 10.7117 32.8519 10.6067 32.9406 10.476C33.0293 10.3453 33.0899 10.196 33.1226 10.028C33.1553 9.86 33.1716 9.68733 33.1716 9.51C33.1716 9.35133 33.1506 9.19733 33.1086 9.048C33.0666 8.89867 32.9966 8.768 32.8986 8.656C32.8053 8.53933 32.6816 8.446 32.5276 8.376C32.3783 8.306 32.1963 8.271 31.9816 8.271C31.7623 8.271 31.5779 8.306 31.4286 8.376C31.2793 8.446 31.1556 8.53933 31.0576 8.656C30.9643 8.768 30.8966 8.89867 30.8546 9.048C30.8126 9.19733 30.7916 9.35133 30.7916 9.51C30.7916 9.68733 30.8079 9.86 30.8406 10.028C30.8733 10.196 30.9339 10.3453 31.0226 10.476C31.1113 10.6067 31.2326 10.7117 31.3866 10.791C31.5406 10.8703 31.7389 10.91 31.9816 10.91ZM39.1787 13.248L36.8407 9.741H38.9267C39.0807 9.741 39.1927 9.762 39.2627 9.804C39.3374 9.84133 39.4027 9.90667 39.4587 10L40.7537 12.149C40.7817 12.065 40.8167 11.9833 40.8587 11.904C40.9007 11.8247 40.9474 11.7407 40.9987 11.652L41.9227 10.035C41.9834 9.92767 42.051 9.853 42.1257 9.811C42.2004 9.76433 42.2914 9.741 42.3987 9.741H44.3867L42.0487 13.15L44.4847 17H42.3987C42.2447 17 42.121 16.9627 42.0277 16.888C41.9344 16.8133 41.8574 16.7247 41.7967 16.622L40.5017 14.396C40.4784 14.4753 40.4504 14.55 40.4177 14.62C40.385 14.69 40.35 14.7553 40.3127 14.816L39.2487 16.622C39.1927 16.72 39.118 16.8087 39.0247 16.888C38.9314 16.9627 38.8147 17 38.6747 17H36.7427L39.1787 13.248Z" fill="white"/>
</g>
<defs>
<filter id="filter0_d_316_5496" x="14.2959" y="6.68903" width="32.1888" height="14.423" filterUnits="userSpaceOnUse" color-interpolation-filters="sRGB">
<feFlood flood-opacity="0" result="BackgroundImageFix"/>
<feColorMatrix in="SourceAlpha" type="matrix" values="0 0 0 0 0 0 0 0 0 0 0 0 0 0 0 0 0 0 127 0" result="hardAlpha"/>
<feOffset dy="2"/>
<feGaussianBlur stdDeviation="1"/>
<feColorMatrix type="matrix" values="0 0 0 0 0 0 0 0 0 0 0 0 0 0 0 0 0 0 0.25 0"/>
<feBlend mode="normal" in2="BackgroundImageFix" result="effect1_dropShadow_316_5496"/>
<feBlend mode="normal" in="SourceGraphic" in2="effect1_dropShadow_316_5496" result="shape"/>
</filter>
</defs>
</svg>
