<svg width="60" height="24" viewBox="0 0 60 24" fill="none" xmlns="http://www.w3.org/2000/svg">
<rect width="60" height="24" rx="12" fill="#CE4C8D"/>
<g filter="url(#filter0_d_316_5502)">
<path d="M17.1359 15.432H19.0959V10.287C19.0959 10.035 19.1029 9.77133 19.1169 9.496L17.9619 10.455C17.8872 10.5157 17.8126 10.56 17.7379 10.588C17.6632 10.6113 17.5909 10.623 17.5209 10.623C17.3996 10.623 17.2899 10.5973 17.1919 10.546C17.0986 10.49 17.0286 10.4317 16.9819 10.371L16.2959 9.461L19.4739 6.794H21.2659V15.432H22.9459V17H17.1359V15.432ZM24.473 15.901C24.473 15.733 24.5033 15.5767 24.564 15.432C24.6293 15.2873 24.7157 15.1613 24.823 15.054C24.935 14.9467 25.0657 14.8627 25.215 14.802C25.3643 14.7367 25.5277 14.704 25.705 14.704C25.8777 14.704 26.0387 14.7367 26.188 14.802C26.3373 14.8627 26.468 14.9467 26.58 15.054C26.692 15.1613 26.7783 15.2873 26.839 15.432C26.9043 15.5767 26.937 15.733 26.937 15.901C26.937 16.069 26.9043 16.2277 26.839 16.377C26.7783 16.5217 26.692 16.6477 26.58 16.755C26.468 16.8623 26.3373 16.9463 26.188 17.007C26.0387 17.0677 25.8777 17.098 25.705 17.098C25.5277 17.098 25.3643 17.0677 25.215 17.007C25.0657 16.9463 24.935 16.8623 24.823 16.755C24.7157 16.6477 24.6293 16.5217 24.564 16.377C24.5033 16.2277 24.473 16.069 24.473 15.901ZM31.5056 13.024C31.1743 13.024 30.8429 12.9657 30.5116 12.849C30.1803 12.7277 29.8793 12.5457 29.6086 12.303C29.3426 12.0603 29.1256 11.7547 28.9576 11.386C28.7896 11.0173 28.7056 10.581 28.7056 10.077C28.7056 9.615 28.7896 9.17867 28.9576 8.768C29.1303 8.35733 29.3729 7.998 29.6856 7.69C30.0029 7.382 30.3809 7.13933 30.8196 6.962C31.2583 6.78 31.7483 6.689 32.2896 6.689C32.8403 6.689 33.3326 6.773 33.7666 6.941C34.2006 7.109 34.5669 7.34467 34.8656 7.648C35.1689 7.95133 35.3999 8.313 35.5586 8.733C35.7219 9.14833 35.8036 9.608 35.8036 10.112C35.8036 10.448 35.7756 10.763 35.7196 11.057C35.6683 11.351 35.5936 11.6333 35.4956 11.904C35.4023 12.17 35.2879 12.4267 35.1526 12.674C35.0173 12.9167 34.8656 13.157 34.6976 13.395L32.4996 16.517C32.4063 16.6523 32.2593 16.7667 32.0586 16.86C31.8579 16.9533 31.6316 17 31.3796 17H29.3776L32.6116 13.136C32.6769 13.0567 32.7376 12.982 32.7936 12.912C32.8543 12.8373 32.9126 12.7627 32.9686 12.688C32.7586 12.8 32.5299 12.884 32.2826 12.94C32.0353 12.996 31.7763 13.024 31.5056 13.024ZM33.7316 9.916C33.7316 9.66867 33.6943 9.45167 33.6196 9.265C33.5496 9.07367 33.4493 8.915 33.3186 8.789C33.1926 8.663 33.0386 8.56733 32.8566 8.502C32.6746 8.43667 32.4763 8.404 32.2616 8.404C32.0423 8.404 31.8463 8.44367 31.6736 8.523C31.5056 8.59767 31.3609 8.70267 31.2396 8.838C31.1229 8.97333 31.0319 9.13433 30.9666 9.321C30.9059 9.503 30.8756 9.70133 30.8756 9.916C30.8756 10.9333 31.3469 11.442 32.2896 11.442C32.7516 11.442 33.1063 11.3043 33.3536 11.029C33.6056 10.749 33.7316 10.378 33.7316 9.916ZM39.1787 13.248L36.8407 9.741H38.9267C39.0807 9.741 39.1927 9.762 39.2627 9.804C39.3374 9.84133 39.4027 9.90667 39.4587 10L40.7537 12.149C40.7817 12.065 40.8167 11.9833 40.8587 11.904C40.9007 11.8247 40.9474 11.7407 40.9987 11.652L41.9227 10.035C41.9834 9.92767 42.051 9.853 42.1257 9.811C42.2004 9.76433 42.2914 9.741 42.3987 9.741H44.3867L42.0487 13.15L44.4847 17H42.3987C42.2447 17 42.121 16.9627 42.0277 16.888C41.9344 16.8133 41.8574 16.7247 41.7967 16.622L40.5017 14.396C40.4784 14.4753 40.4504 14.55 40.4177 14.62C40.385 14.69 40.35 14.7553 40.3127 14.816L39.2487 16.622C39.1927 16.72 39.118 16.8087 39.0247 16.888C38.9314 16.9627 38.8147 17 38.6747 17H36.7427L39.1787 13.248Z" fill="white"/>
</g>
<defs>
<filter id="filter0_d_316_5502" x="14.2959" y="6.689" width="32.1888" height="14.409" filterUnits="userSpaceOnUse" color-interpolation-filters="sRGB">
<feFlood flood-opacity="0" result="BackgroundImageFix"/>
<feColorMatrix in="SourceAlpha" type="matrix" values="0 0 0 0 0 0 0 0 0 0 0 0 0 0 0 0 0 0 127 0" result="hardAlpha"/>
<feOffset dy="2"/>
<feGaussianBlur stdDeviation="1"/>
<feColorMatrix type="matrix" values="0 0 0 0 0 0 0 0 0 0 0 0 0 0 0 0 0 0 0.25 0"/>
<feBlend mode="normal" in2="BackgroundImageFix" result="effect1_dropShadow_316_5502"/>
<feBlend mode="normal" in="SourceGraphic" in2="effect1_dropShadow_316_5502" result="shape"/>
</filter>
</defs>
</svg>
