<svg width="60" height="24" viewBox="0 0 60 24" fill="none" xmlns="http://www.w3.org/2000/svg">
<rect width="60" height="24" rx="12" fill="#D34B8C"/>
<g filter="url(#filter0_d_316_5508)">
<path d="M19.5859 6.689C20.0899 6.689 20.5426 6.76367 20.9439 6.913C21.3499 7.05767 21.6952 7.26067 21.9799 7.522C22.2646 7.78333 22.4816 8.096 22.6309 8.46C22.7849 8.81933 22.8619 9.216 22.8619 9.65C22.8619 10.0233 22.8082 10.3687 22.7009 10.686C22.5982 11.0033 22.4559 11.3067 22.2739 11.596C22.0919 11.8807 21.8796 12.1583 21.6369 12.429C21.3989 12.695 21.1446 12.9657 20.8739 13.241L18.8789 15.285C19.1356 15.2103 19.3876 15.152 19.6349 15.11C19.8869 15.0633 20.1226 15.04 20.3419 15.04H22.2459C22.4792 15.04 22.6636 15.1053 22.7989 15.236C22.9342 15.362 23.0019 15.53 23.0019 15.74V17H15.8339V16.3C15.8339 16.1647 15.8619 16.02 15.9179 15.866C15.9739 15.712 16.0719 15.572 16.2119 15.446L19.1519 12.485C19.4039 12.233 19.6232 11.9927 19.8099 11.764C19.9966 11.5353 20.1506 11.3113 20.2719 11.092C20.3932 10.868 20.4842 10.6463 20.5449 10.427C20.6056 10.203 20.6359 9.96733 20.6359 9.72C20.6359 9.314 20.5379 9.00367 20.3419 8.789C20.1506 8.56967 19.8566 8.46 19.4599 8.46C19.2966 8.46 19.1472 8.48333 19.0119 8.53C18.8766 8.57667 18.7552 8.63967 18.6479 8.719C18.5406 8.79833 18.4472 8.89167 18.3679 8.999C18.2932 9.10633 18.2326 9.223 18.1859 9.349C18.1112 9.559 18.0156 9.71067 17.8989 9.804C17.7869 9.89733 17.6329 9.944 17.4369 9.944C17.3902 9.944 17.3389 9.94167 17.2829 9.937C17.2316 9.93233 17.1779 9.92533 17.1219 9.916L15.9739 9.713C16.0486 9.20433 16.1909 8.761 16.4009 8.383C16.6156 8.005 16.8792 7.69 17.1919 7.438C17.5092 7.186 17.8709 6.99933 18.2769 6.878C18.6829 6.752 19.1192 6.689 19.5859 6.689ZM24.473 15.901C24.473 15.733 24.5033 15.5767 24.564 15.432C24.6293 15.2873 24.7157 15.1613 24.823 15.054C24.935 14.9467 25.0657 14.8627 25.215 14.802C25.3643 14.7367 25.5277 14.704 25.705 14.704C25.8777 14.704 26.0387 14.7367 26.188 14.802C26.3373 14.8627 26.468 14.9467 26.58 15.054C26.692 15.1613 26.7783 15.2873 26.839 15.432C26.9043 15.5767 26.937 15.733 26.937 15.901C26.937 16.069 26.9043 16.2277 26.839 16.377C26.7783 16.5217 26.692 16.6477 26.58 16.755C26.468 16.8623 26.3373 16.9463 26.188 17.007C26.0387 17.0677 25.8777 17.098 25.705 17.098C25.5277 17.098 25.3643 17.0677 25.215 17.007C25.0657 16.9463 24.935 16.8623 24.823 16.755C24.7157 16.6477 24.6293 16.5217 24.564 16.377C24.5033 16.2277 24.473 16.069 24.473 15.901ZM35.7616 11.897C35.7616 12.7883 35.6659 13.5607 35.4746 14.214C35.2833 14.8673 35.0173 15.4087 34.6766 15.838C34.3406 16.2673 33.9393 16.587 33.4726 16.797C33.0106 17.007 32.5089 17.112 31.9676 17.112C31.4263 17.112 30.9246 17.007 30.4626 16.797C30.0053 16.587 29.6086 16.2673 29.2726 15.838C28.9366 15.4087 28.6729 14.8673 28.4816 14.214C28.2949 13.5607 28.2016 12.7883 28.2016 11.897C28.2016 11.0057 28.2949 10.2333 28.4816 9.58C28.6729 8.92667 28.9366 8.38533 29.2726 7.956C29.6086 7.52667 30.0053 7.20933 30.4626 7.004C30.9246 6.794 31.4263 6.689 31.9676 6.689C32.5089 6.689 33.0106 6.794 33.4726 7.004C33.9393 7.20933 34.3406 7.52667 34.6766 7.956C35.0173 8.38533 35.2833 8.92667 35.4746 9.58C35.6659 10.2333 35.7616 11.0057 35.7616 11.897ZM33.5216 11.897C33.5216 11.1923 33.4773 10.616 33.3886 10.168C33.2999 9.71533 33.1809 9.36067 33.0316 9.104C32.8869 8.84733 32.7213 8.67233 32.5346 8.579C32.3479 8.481 32.1589 8.432 31.9676 8.432C31.7763 8.432 31.5873 8.481 31.4006 8.579C31.2186 8.67233 31.0553 8.84733 30.9106 9.104C30.7706 9.36067 30.6563 9.71533 30.5676 10.168C30.4836 10.616 30.4416 11.1923 30.4416 11.897C30.4416 12.6063 30.4836 13.185 30.5676 13.633C30.6563 14.081 30.7706 14.4357 30.9106 14.697C31.0553 14.9537 31.2186 15.131 31.4006 15.229C31.5873 15.3223 31.7763 15.369 31.9676 15.369C32.1589 15.369 32.3479 15.3223 32.5346 15.229C32.7213 15.131 32.8869 14.9537 33.0316 14.697C33.1809 14.4357 33.2999 14.081 33.3886 13.633C33.4773 13.185 33.5216 12.6063 33.5216 11.897ZM39.1787 13.248L36.8407 9.741H38.9267C39.0807 9.741 39.1927 9.762 39.2627 9.804C39.3374 9.84133 39.4027 9.90667 39.4587 10L40.7537 12.149C40.7817 12.065 40.8167 11.9833 40.8587 11.904C40.9007 11.8247 40.9474 11.7407 40.9987 11.652L41.9227 10.035C41.9834 9.92767 42.051 9.853 42.1257 9.811C42.2004 9.76433 42.2914 9.741 42.3987 9.741H44.3867L42.0487 13.15L44.4847 17H42.3987C42.2447 17 42.121 16.9627 42.0277 16.888C41.9344 16.8133 41.8574 16.7247 41.7967 16.622L40.5017 14.396C40.4784 14.4753 40.4504 14.55 40.4177 14.62C40.385 14.69 40.35 14.7553 40.3127 14.816L39.2487 16.622C39.1927 16.72 39.118 16.8087 39.0247 16.888C38.9314 16.9627 38.8147 17 38.6747 17H36.7427L39.1787 13.248Z" fill="white"/>
</g>
<defs>
<filter id="filter0_d_316_5508" x="13.8339" y="6.689" width="32.6508" height="14.423" filterUnits="userSpaceOnUse" color-interpolation-filters="sRGB">
<feFlood flood-opacity="0" result="BackgroundImageFix"/>
<feColorMatrix in="SourceAlpha" type="matrix" values="0 0 0 0 0 0 0 0 0 0 0 0 0 0 0 0 0 0 127 0" result="hardAlpha"/>
<feOffset dy="2"/>
<feGaussianBlur stdDeviation="1"/>
<feColorMatrix type="matrix" values="0 0 0 0 0 0 0 0 0 0 0 0 0 0 0 0 0 0 0.25 0"/>
<feBlend mode="normal" in2="BackgroundImageFix" result="effect1_dropShadow_316_5508"/>
<feBlend mode="normal" in="SourceGraphic" in2="effect1_dropShadow_316_5508" result="shape"/>
</filter>
</defs>
</svg>
