<svg width="60" height="24" viewBox="0 0 60 24" fill="none" xmlns="http://www.w3.org/2000/svg">
<rect width="60" height="24" rx="12" fill="#2D9CDB"/>
<g filter="url(#filter0_d_316_5547)">
<path d="M30.427 17H28.593C28.3877 17 28.2173 16.9533 28.082 16.86C27.9513 16.762 27.8603 16.6383 27.809 16.489L27.207 14.711H23.329L22.727 16.489C22.6803 16.6197 22.5893 16.7387 22.454 16.846C22.3187 16.9487 22.153 17 21.957 17H20.109L24.057 6.801H26.479L30.427 17ZM23.875 13.101H26.661L25.723 10.308C25.6623 10.1307 25.59 9.923 25.506 9.685C25.4267 9.44233 25.3473 9.181 25.268 8.901C25.1933 9.18567 25.1163 9.44933 25.037 9.692C24.9577 9.93467 24.883 10.1447 24.813 10.322L23.875 13.101ZM34.1833 13.591V17H31.8173V6.801H35.4153C36.1339 6.801 36.7499 6.88733 37.2633 7.06C37.7813 7.228 38.2059 7.46133 38.5373 7.76C38.8733 8.05867 39.1206 8.411 39.2793 8.817C39.4379 9.223 39.5173 9.66167 39.5173 10.133C39.5173 10.6417 39.4356 11.1083 39.2723 11.533C39.1089 11.9577 38.8593 12.3217 38.5233 12.625C38.1873 12.9283 37.7603 13.1663 37.2423 13.339C36.7289 13.507 36.1199 13.591 35.4153 13.591H34.1833ZM34.1833 11.806H35.4153C36.0313 11.806 36.4746 11.659 36.7453 11.365C37.0159 11.071 37.1513 10.6603 37.1513 10.133C37.1513 9.89967 37.1163 9.68733 37.0463 9.496C36.9763 9.30467 36.8689 9.14133 36.7243 9.006C36.5843 8.866 36.4046 8.75867 36.1853 8.684C35.9706 8.60933 35.7139 8.572 35.4153 8.572H34.1833V11.806Z" fill="white"/>
</g>
<defs>
<filter id="filter0_d_316_5547" x="18.109" y="6.80103" width="23.4083" height="14.199" filterUnits="userSpaceOnUse" color-interpolation-filters="sRGB">
<feFlood flood-opacity="0" result="BackgroundImageFix"/>
<feColorMatrix in="SourceAlpha" type="matrix" values="0 0 0 0 0 0 0 0 0 0 0 0 0 0 0 0 0 0 127 0" result="hardAlpha"/>
<feOffset dy="2"/>
<feGaussianBlur stdDeviation="1"/>
<feColorMatrix type="matrix" values="0 0 0 0 0 0 0 0 0 0 0 0 0 0 0 0 0 0 0.25 0"/>
<feBlend mode="normal" in2="BackgroundImageFix" result="effect1_dropShadow_316_5547"/>
<feBlend mode="normal" in="SourceGraphic" in2="effect1_dropShadow_316_5547" result="shape"/>
</filter>
</defs>
</svg>
