<svg width="60" height="24" viewBox="0 0 60 24" fill="none" xmlns="http://www.w3.org/2000/svg">
<rect width="60" height="24" rx="12" fill="#44B0C8"/>
<g filter="url(#filter0_d_316_5549)">
<path d="M13.7205 14.361C13.7765 14.361 13.8325 14.3727 13.8885 14.396C13.9445 14.4147 13.9981 14.4497 14.0495 14.501L14.9875 15.488C14.5768 16.0247 14.0611 16.4307 13.4405 16.706C12.8245 16.9767 12.0941 17.112 11.2495 17.112C10.4748 17.112 9.77946 16.9813 9.16346 16.72C8.55213 16.454 8.03179 16.09 7.60246 15.628C7.17779 15.1613 6.85113 14.6107 6.62246 13.976C6.39379 13.3367 6.27946 12.6437 6.27946 11.897C6.27946 11.1363 6.41013 10.4387 6.67146 9.804C6.93279 9.16467 7.29679 8.614 7.76346 8.152C8.23479 7.69 8.79713 7.33067 9.45046 7.074C10.1038 6.81733 10.8248 6.689 11.6135 6.689C11.9961 6.689 12.3555 6.724 12.6915 6.794C13.0321 6.85933 13.3495 6.95267 13.6435 7.074C13.9375 7.19067 14.2081 7.333 14.4555 7.501C14.7028 7.66433 14.9221 7.84633 15.1135 8.047L14.3155 9.118C14.2641 9.18333 14.2035 9.244 14.1335 9.3C14.0635 9.35133 13.9655 9.377 13.8395 9.377C13.7555 9.377 13.6761 9.35833 13.6015 9.321C13.5268 9.28367 13.4475 9.23933 13.3635 9.188C13.2795 9.132 13.1861 9.07367 13.0835 9.013C12.9855 8.94767 12.8665 8.88933 12.7265 8.838C12.5911 8.782 12.4301 8.73533 12.2435 8.698C12.0615 8.66067 11.8468 8.642 11.5995 8.642C11.1701 8.642 10.7781 8.719 10.4235 8.873C10.0688 9.02233 9.76313 9.23933 9.50646 9.524C9.25446 9.804 9.05613 10.1447 8.91146 10.546C8.77146 10.9473 8.70146 11.3977 8.70146 11.897C8.70146 12.4197 8.77146 12.884 8.91146 13.29C9.05613 13.696 9.24979 14.039 9.49246 14.319C9.73979 14.5943 10.0268 14.8043 10.3535 14.949C10.6801 15.0937 11.0301 15.166 11.4035 15.166C11.6181 15.166 11.8141 15.1567 11.9915 15.138C12.1688 15.1147 12.3321 15.0773 12.4815 15.026C12.6355 14.9747 12.7801 14.9093 12.9155 14.83C13.0555 14.746 13.1955 14.6433 13.3355 14.522C13.3915 14.4753 13.4521 14.438 13.5175 14.41C13.5828 14.3773 13.6505 14.361 13.7205 14.361ZM26.6946 11.897C26.6946 12.6343 26.5663 13.3203 26.3096 13.955C26.0576 14.5897 25.7006 15.1427 25.2386 15.614C24.7766 16.0807 24.219 16.447 23.5656 16.713C22.917 16.979 22.196 17.112 21.4026 17.112C20.6093 17.112 19.886 16.979 19.2326 16.713C18.5793 16.447 18.0193 16.0807 17.5526 15.614C17.0906 15.1427 16.7313 14.5897 16.4746 13.955C16.2226 13.3203 16.0966 12.6343 16.0966 11.897C16.0966 11.1597 16.2226 10.4737 16.4746 9.839C16.7313 9.20433 17.0906 8.65367 17.5526 8.187C18.0193 7.72033 18.5793 7.354 19.2326 7.088C19.886 6.822 20.6093 6.689 21.4026 6.689C22.196 6.689 22.917 6.82433 23.5656 7.095C24.219 7.361 24.7766 7.72733 25.2386 8.194C25.7006 8.66067 26.0576 9.21133 26.3096 9.846C26.5663 10.4807 26.6946 11.1643 26.6946 11.897ZM24.2726 11.897C24.2726 11.393 24.2073 10.9403 24.0766 10.539C23.946 10.133 23.757 9.79 23.5096 9.51C23.267 9.23 22.9683 9.01533 22.6136 8.866C22.259 8.71667 21.8553 8.642 21.4026 8.642C20.9453 8.642 20.537 8.71667 20.1776 8.866C19.823 9.01533 19.522 9.23 19.2746 9.51C19.032 9.79 18.8453 10.133 18.7146 10.539C18.584 10.9403 18.5186 11.393 18.5186 11.897C18.5186 12.4057 18.584 12.863 18.7146 13.269C18.8453 13.6703 19.032 14.011 19.2746 14.291C19.522 14.571 19.823 14.7857 20.1776 14.935C20.537 15.0797 20.9453 15.152 21.4026 15.152C21.8553 15.152 22.259 15.0797 22.6136 14.935C22.9683 14.7857 23.267 14.571 23.5096 14.291C23.757 14.011 23.946 13.6703 24.0766 13.269C24.2073 12.863 24.2726 12.4057 24.2726 11.897ZM28.2459 11.869H32.0259V13.619H28.2459V11.869ZM44.1935 11.897C44.1935 12.6343 44.0652 13.3203 43.8085 13.955C43.5565 14.5897 43.1995 15.1427 42.7375 15.614C42.2755 16.0807 41.7179 16.447 41.0645 16.713C40.4159 16.979 39.6949 17.112 38.9015 17.112C38.1082 17.112 37.3849 16.979 36.7315 16.713C36.0782 16.447 35.5182 16.0807 35.0515 15.614C34.5895 15.1427 34.2302 14.5897 33.9735 13.955C33.7215 13.3203 33.5955 12.6343 33.5955 11.897C33.5955 11.1597 33.7215 10.4737 33.9735 9.839C34.2302 9.20433 34.5895 8.65367 35.0515 8.187C35.5182 7.72033 36.0782 7.354 36.7315 7.088C37.3849 6.822 38.1082 6.689 38.9015 6.689C39.6949 6.689 40.4159 6.82433 41.0645 7.095C41.7179 7.361 42.2755 7.72733 42.7375 8.194C43.1995 8.66067 43.5565 9.21133 43.8085 9.846C44.0652 10.4807 44.1935 11.1643 44.1935 11.897ZM41.7715 11.897C41.7715 11.393 41.7062 10.9403 41.5755 10.539C41.4449 10.133 41.2559 9.79 41.0085 9.51C40.7659 9.23 40.4672 9.01533 40.1125 8.866C39.7579 8.71667 39.3542 8.642 38.9015 8.642C38.4442 8.642 38.0359 8.71667 37.6765 8.866C37.3219 9.01533 37.0209 9.23 36.7735 9.51C36.5309 9.79 36.3442 10.133 36.2135 10.539C36.0829 10.9403 36.0175 11.393 36.0175 11.897C36.0175 12.4057 36.0829 12.863 36.2135 13.269C36.3442 13.6703 36.5309 14.011 36.7735 14.291C37.0209 14.571 37.3219 14.7857 37.6765 14.935C38.0359 15.0797 38.4442 15.152 38.9015 15.152C39.3542 15.152 39.7579 15.0797 40.1125 14.935C40.4672 14.7857 40.7659 14.571 41.0085 14.291C41.2559 14.011 41.4449 13.6703 41.5755 13.269C41.7062 12.863 41.7715 12.4057 41.7715 11.897ZM48.2508 13.591V17H45.8848V6.801H49.4828C50.2015 6.801 50.8175 6.88733 51.3308 7.06C51.8488 7.228 52.2735 7.46133 52.6048 7.76C52.9408 8.05867 53.1881 8.411 53.3468 8.817C53.5055 9.223 53.5848 9.66167 53.5848 10.133C53.5848 10.6417 53.5031 11.1083 53.3398 11.533C53.1765 11.9577 52.9268 12.3217 52.5908 12.625C52.2548 12.9283 51.8278 13.1663 51.3098 13.339C50.7965 13.507 50.1875 13.591 49.4828 13.591H48.2508ZM48.2508 11.806H49.4828C50.0988 11.806 50.5421 11.659 50.8128 11.365C51.0835 11.071 51.2188 10.6603 51.2188 10.133C51.2188 9.89967 51.1838 9.68733 51.1138 9.496C51.0438 9.30467 50.9365 9.14133 50.7918 9.006C50.6518 8.866 50.4721 8.75867 50.2528 8.684C50.0381 8.60933 49.7815 8.572 49.4828 8.572H48.2508V11.806Z" fill="white"/>
</g>
<defs>
<filter id="filter0_d_316_5549" x="4.27946" y="6.68896" width="51.3054" height="14.4231" filterUnits="userSpaceOnUse" color-interpolation-filters="sRGB">
<feFlood flood-opacity="0" result="BackgroundImageFix"/>
<feColorMatrix in="SourceAlpha" type="matrix" values="0 0 0 0 0 0 0 0 0 0 0 0 0 0 0 0 0 0 127 0" result="hardAlpha"/>
<feOffset dy="2"/>
<feGaussianBlur stdDeviation="1"/>
<feColorMatrix type="matrix" values="0 0 0 0 0 0 0 0 0 0 0 0 0 0 0 0 0 0 0.25 0"/>
<feBlend mode="normal" in2="BackgroundImageFix" result="effect1_dropShadow_316_5549"/>
<feBlend mode="normal" in="SourceGraphic" in2="effect1_dropShadow_316_5549" result="shape"/>
</filter>
</defs>
</svg>
