<svg width="60" height="24" viewBox="0 0 60 24" fill="none" xmlns="http://www.w3.org/2000/svg">
<rect width="60" height="24" rx="12" fill="#F2994A"/>
<g filter="url(#filter0_d_316_5560)">
<path d="M24.0286 6.801V8.621H19.8426V11.204H23.3286V13.031H19.8426V17H17.4626V6.801H24.0286ZM28.1816 15.11H31.9616V17H25.8156V6.801H28.1816V15.11ZM34.8813 6.801C34.984 6.801 35.0703 6.80567 35.1403 6.815C35.2103 6.82433 35.2733 6.843 35.3293 6.871C35.3853 6.89433 35.439 6.92933 35.4903 6.976C35.5417 7.02267 35.6 7.08567 35.6653 7.165L40.5093 13.29C40.4907 13.094 40.4767 12.905 40.4673 12.723C40.458 12.5363 40.4533 12.3613 40.4533 12.198V6.801H42.5393V17H41.3073C41.1253 17 40.9713 16.972 40.8453 16.916C40.7193 16.86 40.598 16.7573 40.4813 16.608L35.6723 10.532C35.6863 10.7093 35.698 10.8843 35.7073 11.057C35.7167 11.225 35.7213 11.3837 35.7213 11.533V17H33.6353V6.801H34.8813Z" fill="white"/>
</g>
<defs>
<filter id="filter0_d_316_5560" x="15.4626" y="6.80103" width="29.0767" height="14.199" filterUnits="userSpaceOnUse" color-interpolation-filters="sRGB">
<feFlood flood-opacity="0" result="BackgroundImageFix"/>
<feColorMatrix in="SourceAlpha" type="matrix" values="0 0 0 0 0 0 0 0 0 0 0 0 0 0 0 0 0 0 127 0" result="hardAlpha"/>
<feOffset dy="2"/>
<feGaussianBlur stdDeviation="1"/>
<feColorMatrix type="matrix" values="0 0 0 0 0 0 0 0 0 0 0 0 0 0 0 0 0 0 0.25 0"/>
<feBlend mode="normal" in2="BackgroundImageFix" result="effect1_dropShadow_316_5560"/>
<feBlend mode="normal" in="SourceGraphic" in2="effect1_dropShadow_316_5560" result="shape"/>
</filter>
</defs>
</svg>
