<svg width="60" height="24" viewBox="0 0 60 24" fill="none" xmlns="http://www.w3.org/2000/svg">
<rect width="60" height="24" rx="12" fill="#5F868F"/>
<g filter="url(#filter0_d_316_5544)">
<path d="M24.5436 12.338C24.6369 12.5153 24.7256 12.6997 24.8096 12.891C24.8982 13.0823 24.9822 13.2783 25.0616 13.479C25.1409 13.2737 25.2249 13.0753 25.3136 12.884C25.4022 12.688 25.4932 12.499 25.5866 12.317L28.2046 7.165C28.2512 7.07633 28.2979 7.00867 28.3446 6.962C28.3959 6.91067 28.4519 6.87333 28.5126 6.85C28.5732 6.82667 28.6409 6.81267 28.7156 6.808C28.7949 6.80333 28.8859 6.801 28.9886 6.801H30.7946V17H28.7086V11.134C28.7086 10.8493 28.7226 10.5413 28.7506 10.21L26.0486 15.453C25.9646 15.6163 25.8502 15.74 25.7056 15.824C25.5656 15.908 25.4046 15.95 25.2226 15.95H24.9006C24.7186 15.95 24.5552 15.908 24.4106 15.824C24.2706 15.74 24.1586 15.6163 24.0746 15.453L21.3586 10.203C21.3772 10.3663 21.3912 10.5297 21.4006 10.693C21.4099 10.8517 21.4146 10.9987 21.4146 11.134V17H19.3286V6.801H21.1346C21.2372 6.801 21.3259 6.80333 21.4006 6.808C21.4799 6.81267 21.5499 6.82667 21.6106 6.85C21.6712 6.87333 21.7249 6.91067 21.7716 6.962C21.8229 7.00867 21.8719 7.07633 21.9186 7.165L24.5436 12.338ZM35.4069 13.227V17H33.0409V6.801H36.3589C37.0962 6.801 37.7239 6.878 38.2419 7.032C38.7646 7.18133 39.1892 7.39133 39.5159 7.662C39.8472 7.93267 40.0876 8.25233 40.2369 8.621C40.3862 8.98967 40.4609 9.391 40.4609 9.825C40.4609 10.1563 40.4166 10.469 40.3279 10.763C40.2392 11.057 40.1062 11.33 39.9289 11.582C39.7562 11.8293 39.5416 12.051 39.2849 12.247C39.0329 12.443 38.7412 12.604 38.4099 12.73C38.5686 12.8093 38.7156 12.9073 38.8509 13.024C38.9909 13.1407 39.1122 13.283 39.2149 13.451L41.3849 17H39.2429C38.8462 17 38.5616 16.8507 38.3889 16.552L36.6949 13.591C36.6202 13.4603 36.5316 13.367 36.4289 13.311C36.3309 13.255 36.1909 13.227 36.0089 13.227H35.4069ZM35.4069 11.596H36.3589C36.6809 11.596 36.9539 11.5563 37.1779 11.477C37.4066 11.393 37.5932 11.2787 37.7379 11.134C37.8826 10.9893 37.9876 10.8213 38.0529 10.63C38.1182 10.434 38.1509 10.224 38.1509 10C38.1509 9.552 38.0039 9.202 37.7099 8.95C37.4206 8.698 36.9702 8.572 36.3589 8.572H35.4069V11.596Z" fill="white"/>
</g>
<defs>
<filter id="filter0_d_316_5544" x="17.3286" y="6.80103" width="26.0564" height="14.199" filterUnits="userSpaceOnUse" color-interpolation-filters="sRGB">
<feFlood flood-opacity="0" result="BackgroundImageFix"/>
<feColorMatrix in="SourceAlpha" type="matrix" values="0 0 0 0 0 0 0 0 0 0 0 0 0 0 0 0 0 0 127 0" result="hardAlpha"/>
<feOffset dy="2"/>
<feGaussianBlur stdDeviation="1"/>
<feColorMatrix type="matrix" values="0 0 0 0 0 0 0 0 0 0 0 0 0 0 0 0 0 0 0.25 0"/>
<feBlend mode="normal" in2="BackgroundImageFix" result="effect1_dropShadow_316_5544"/>
<feBlend mode="normal" in="SourceGraphic" in2="effect1_dropShadow_316_5544" result="shape"/>
</filter>
</defs>
</svg>
