<svg width="60" height="24" viewBox="0 0 60 24" fill="none" xmlns="http://www.w3.org/2000/svg">
<rect width="60" height="24" rx="12" fill="#F2994A"/>
<g filter="url(#filter0_d_316_5557)">
<path d="M17.3141 6.801C17.4168 6.801 17.5031 6.80567 17.5731 6.815C17.6431 6.82433 17.7061 6.843 17.7621 6.871C17.8181 6.89433 17.8718 6.92933 17.9231 6.976C17.9744 7.02267 18.0328 7.08567 18.0981 7.165L22.9421 13.29C22.9234 13.094 22.9094 12.905 22.9001 12.723C22.8908 12.5363 22.8861 12.3613 22.8861 12.198V6.801H24.9721V17H23.7401C23.5581 17 23.4041 16.972 23.2781 16.916C23.1521 16.86 23.0308 16.7573 22.9141 16.608L18.1051 10.532C18.1191 10.7093 18.1308 10.8843 18.1401 11.057C18.1494 11.225 18.1541 11.3837 18.1541 11.533V17H16.0681V6.801H17.3141ZM29.5761 15.11H33.3561V17H27.2101V6.801H29.5761V15.11ZM36.2759 6.801C36.3786 6.801 36.4649 6.80567 36.5349 6.815C36.6049 6.82433 36.6679 6.843 36.7239 6.871C36.7799 6.89433 36.8336 6.92933 36.8849 6.976C36.9362 7.02267 36.9946 7.08567 37.0599 7.165L41.9039 13.29C41.8852 13.094 41.8712 12.905 41.8619 12.723C41.8526 12.5363 41.8479 12.3613 41.8479 12.198V6.801H43.9339V17H42.7019C42.5199 17 42.3659 16.972 42.2399 16.916C42.1139 16.86 41.9926 16.7573 41.8759 16.608L37.0669 10.532C37.0809 10.7093 37.0926 10.8843 37.1019 11.057C37.1112 11.225 37.1159 11.3837 37.1159 11.533V17H35.0299V6.801H36.2759Z" fill="white"/>
</g>
<defs>
<filter id="filter0_d_316_5557" x="14.0681" y="6.80103" width="31.8658" height="14.199" filterUnits="userSpaceOnUse" color-interpolation-filters="sRGB">
<feFlood flood-opacity="0" result="BackgroundImageFix"/>
<feColorMatrix in="SourceAlpha" type="matrix" values="0 0 0 0 0 0 0 0 0 0 0 0 0 0 0 0 0 0 127 0" result="hardAlpha"/>
<feOffset dy="2"/>
<feGaussianBlur stdDeviation="1"/>
<feColorMatrix type="matrix" values="0 0 0 0 0 0 0 0 0 0 0 0 0 0 0 0 0 0 0.25 0"/>
<feBlend mode="normal" in2="BackgroundImageFix" result="effect1_dropShadow_316_5557"/>
<feBlend mode="normal" in="SourceGraphic" in2="effect1_dropShadow_316_5557" result="shape"/>
</filter>
</defs>
</svg>
