<svg width="60" height="24" viewBox="0 0 60 24" fill="none" xmlns="http://www.w3.org/2000/svg">
<rect width="60" height="24" rx="12" fill="#F9645D"/>
<g filter="url(#filter0_d_1483_4474)">
<path d="M19.9388 6.801C20.0415 6.801 20.1278 6.80567 20.1978 6.815C20.2678 6.82433 20.3308 6.843 20.3868 6.871C20.4428 6.89433 20.4965 6.92933 20.5478 6.976C20.5991 7.02267 20.6575 7.08567 20.7228 7.165L25.5668 13.29C25.5481 13.094 25.5341 12.905 25.5248 12.723C25.5155 12.5363 25.5108 12.3613 25.5108 12.198V6.801H27.5968V17H26.3648C26.1828 17 26.0288 16.972 25.9028 16.916C25.7768 16.86 25.6555 16.7573 25.5388 16.608L20.7298 10.532C20.7438 10.7093 20.7555 10.8843 20.7648 11.057C20.7741 11.225 20.7788 11.3837 20.7788 11.533V17H18.6928V6.801H19.9388ZM35.0498 12.338C35.1432 12.5153 35.2318 12.6997 35.3158 12.891C35.4045 13.0823 35.4885 13.2783 35.5678 13.479C35.6472 13.2737 35.7312 13.0753 35.8198 12.884C35.9085 12.688 35.9995 12.499 36.0928 12.317L38.7108 7.165C38.7575 7.07633 38.8042 7.00867 38.8508 6.962C38.9022 6.91067 38.9582 6.87333 39.0188 6.85C39.0795 6.82667 39.1472 6.81267 39.2218 6.808C39.3012 6.80333 39.3922 6.801 39.4948 6.801H41.3008V17H39.2148V11.134C39.2148 10.8493 39.2288 10.5413 39.2568 10.21L36.5548 15.453C36.4708 15.6163 36.3565 15.74 36.2118 15.824C36.0718 15.908 35.9108 15.95 35.7288 15.95H35.4068C35.2248 15.95 35.0615 15.908 34.9168 15.824C34.7768 15.74 34.6648 15.6163 34.5808 15.453L31.8648 10.203C31.8835 10.3663 31.8975 10.5297 31.9068 10.693C31.9162 10.8517 31.9208 10.9987 31.9208 11.134V17H29.8348V6.801H31.6408C31.7435 6.801 31.8322 6.80333 31.9068 6.808C31.9862 6.81267 32.0562 6.82667 32.1168 6.85C32.1775 6.87333 32.2312 6.91067 32.2778 6.962C32.3292 7.00867 32.3782 7.07633 32.4248 7.165L35.0498 12.338Z" fill="white"/>
</g>
<defs>
<filter id="filter0_d_1483_4474" x="16.6928" y="6.80103" width="26.608" height="14.199" filterUnits="userSpaceOnUse" color-interpolation-filters="sRGB">
<feFlood flood-opacity="0" result="BackgroundImageFix"/>
<feColorMatrix in="SourceAlpha" type="matrix" values="0 0 0 0 0 0 0 0 0 0 0 0 0 0 0 0 0 0 127 0" result="hardAlpha"/>
<feOffset dy="2"/>
<feGaussianBlur stdDeviation="1"/>
<feColorMatrix type="matrix" values="0 0 0 0 0 0 0 0 0 0 0 0 0 0 0 0 0 0 0.25 0"/>
<feBlend mode="normal" in2="BackgroundImageFix" result="effect1_dropShadow_1483_4474"/>
<feBlend mode="normal" in="SourceGraphic" in2="effect1_dropShadow_1483_4474" result="shape"/>
</filter>
</defs>
</svg>
