<svg width="60" height="24" viewBox="0 0 60 24" fill="none" xmlns="http://www.w3.org/2000/svg">
<g opacity="0.4">
<rect x="1.5" y="1.5" width="57" height="21" rx="10.5" fill="#363636" stroke="#525252" stroke-width="3"/>
<g filter="url(#filter0_d_316_5578)">
<path d="M11.1073 6.801C11.21 6.801 11.2963 6.80567 11.3663 6.815C11.4363 6.82433 11.4993 6.843 11.5553 6.871C11.6113 6.89433 11.665 6.92933 11.7163 6.976C11.7677 7.02267 11.826 7.08567 11.8913 7.165L16.7353 13.29C16.7167 13.094 16.7027 12.905 16.6933 12.723C16.684 12.5363 16.6793 12.3613 16.6793 12.198V6.801H18.7653V17H17.5333C17.3513 17 17.1973 16.972 17.0713 16.916C16.9453 16.86 16.824 16.7573 16.7073 16.608L11.8983 10.532C11.9123 10.7093 11.924 10.8843 11.9333 11.057C11.9427 11.225 11.9473 11.3837 11.9473 11.533V17H9.86133V6.801H11.1073ZM31.0694 11.897C31.0694 12.6343 30.941 13.3203 30.6844 13.955C30.4324 14.5897 30.0754 15.1427 29.6134 15.614C29.1514 16.0807 28.5937 16.447 27.9404 16.713C27.2917 16.979 26.5707 17.112 25.7774 17.112C24.984 17.112 24.2607 16.979 23.6074 16.713C22.954 16.447 22.394 16.0807 21.9274 15.614C21.4654 15.1427 21.106 14.5897 20.8494 13.955C20.5974 13.3203 20.4714 12.6343 20.4714 11.897C20.4714 11.1597 20.5974 10.4737 20.8494 9.839C21.106 9.20433 21.4654 8.65367 21.9274 8.187C22.394 7.72033 22.954 7.354 23.6074 7.088C24.2607 6.822 24.984 6.689 25.7774 6.689C26.5707 6.689 27.2917 6.82433 27.9404 7.095C28.5937 7.361 29.1514 7.72733 29.6134 8.194C30.0754 8.66067 30.4324 9.21133 30.6844 9.846C30.941 10.4807 31.0694 11.1643 31.0694 11.897ZM28.6474 11.897C28.6474 11.393 28.582 10.9403 28.4514 10.539C28.3207 10.133 28.1317 9.79 27.8844 9.51C27.6417 9.23 27.343 9.01533 26.9884 8.866C26.6337 8.71667 26.23 8.642 25.7774 8.642C25.32 8.642 24.9117 8.71667 24.5524 8.866C24.1977 9.01533 23.8967 9.23 23.6494 9.51C23.4067 9.79 23.22 10.133 23.0894 10.539C22.9587 10.9403 22.8934 11.393 22.8934 11.897C22.8934 12.4057 22.9587 12.863 23.0894 13.269C23.22 13.6703 23.4067 14.011 23.6494 14.291C23.8967 14.571 24.1977 14.7857 24.5524 14.935C24.9117 15.0797 25.32 15.152 25.7774 15.152C26.23 15.152 26.6337 15.0797 26.9884 14.935C27.343 14.7857 27.6417 14.571 27.8844 14.291C28.1317 14.011 28.3207 13.6703 28.4514 13.269C28.582 12.863 28.6474 12.4057 28.6474 11.897ZM34.0066 6.801C34.1093 6.801 34.1956 6.80567 34.2656 6.815C34.3356 6.82433 34.3986 6.843 34.4546 6.871C34.5106 6.89433 34.5643 6.92933 34.6156 6.976C34.667 7.02267 34.7253 7.08567 34.7906 7.165L39.6346 13.29C39.616 13.094 39.602 12.905 39.5926 12.723C39.5833 12.5363 39.5786 12.3613 39.5786 12.198V6.801H41.6646V17H40.4326C40.2506 17 40.0966 16.972 39.9706 16.916C39.8446 16.86 39.7233 16.7573 39.6066 16.608L34.7976 10.532C34.8116 10.7093 34.8233 10.8843 34.8326 11.057C34.842 11.225 34.8466 11.3837 34.8466 11.533V17H32.7606V6.801H34.0066ZM50.4687 6.801V8.621H46.2827V11.001H49.4887V12.751H46.2827V15.18H50.4687V17H43.9027V6.801H50.4687Z" fill="white"/>
</g>
</g>
<defs>
<filter id="filter0_d_316_5578" x="7.86133" y="6.68896" width="44.6073" height="14.423" filterUnits="userSpaceOnUse" color-interpolation-filters="sRGB">
<feFlood flood-opacity="0" result="BackgroundImageFix"/>
<feColorMatrix in="SourceAlpha" type="matrix" values="0 0 0 0 0 0 0 0 0 0 0 0 0 0 0 0 0 0 127 0" result="hardAlpha"/>
<feOffset dy="2"/>
<feGaussianBlur stdDeviation="1"/>
<feColorMatrix type="matrix" values="0 0 0 0 0 0 0 0 0 0 0 0 0 0 0 0 0 0 0.25 0"/>
<feBlend mode="normal" in2="BackgroundImageFix" result="effect1_dropShadow_316_5578"/>
<feBlend mode="normal" in="SourceGraphic" in2="effect1_dropShadow_316_5578" result="shape"/>
</filter>
</defs>
</svg>
