<svg width="60" height="24" viewBox="0 0 60 24" fill="none" xmlns="http://www.w3.org/2000/svg">
<rect width="60" height="24" rx="12" fill="#808080"/>
<g filter="url(#filter0_d_316_5572)">
<path d="M22.0511 6.801C22.1538 6.801 22.2401 6.80567 22.3101 6.815C22.3801 6.82433 22.4431 6.843 22.4991 6.871C22.5551 6.89433 22.6088 6.92933 22.6601 6.976C22.7115 7.02267 22.7698 7.08567 22.8351 7.165L27.6791 13.29C27.6605 13.094 27.6465 12.905 27.6371 12.723C27.6278 12.5363 27.6231 12.3613 27.6231 12.198V6.801H29.7091V17H28.4771C28.2951 17 28.1411 16.972 28.0151 16.916C27.8891 16.86 27.7678 16.7573 27.6511 16.608L22.8421 10.532C22.8561 10.7093 22.8678 10.8843 22.8771 11.057C22.8865 11.225 22.8911 11.3837 22.8911 11.533V17H20.8051V6.801H22.0511ZM34.3132 13.591V17H31.9472V6.801H35.5452C36.2638 6.801 36.8798 6.88733 37.3932 7.06C37.9112 7.228 38.3358 7.46133 38.6672 7.76C39.0032 8.05867 39.2505 8.411 39.4092 8.817C39.5678 9.223 39.6472 9.66167 39.6472 10.133C39.6472 10.6417 39.5655 11.1083 39.4022 11.533C39.2388 11.9577 38.9892 12.3217 38.6532 12.625C38.3172 12.9283 37.8902 13.1663 37.3722 13.339C36.8588 13.507 36.2498 13.591 35.5452 13.591H34.3132ZM34.3132 11.806H35.5452C36.1612 11.806 36.6045 11.659 36.8752 11.365C37.1458 11.071 37.2812 10.6603 37.2812 10.133C37.2812 9.89967 37.2462 9.68733 37.1762 9.496C37.1062 9.30467 36.9988 9.14133 36.8542 9.006C36.7142 8.866 36.5345 8.75867 36.3152 8.684C36.1005 8.60933 35.8438 8.572 35.5452 8.572H34.3132V11.806Z" fill="white"/>
</g>
<defs>
<filter id="filter0_d_316_5572" x="18.8051" y="6.80103" width="22.842" height="14.199" filterUnits="userSpaceOnUse" color-interpolation-filters="sRGB">
<feFlood flood-opacity="0" result="BackgroundImageFix"/>
<feColorMatrix in="SourceAlpha" type="matrix" values="0 0 0 0 0 0 0 0 0 0 0 0 0 0 0 0 0 0 127 0" result="hardAlpha"/>
<feOffset dy="2"/>
<feGaussianBlur stdDeviation="1"/>
<feColorMatrix type="matrix" values="0 0 0 0 0 0 0 0 0 0 0 0 0 0 0 0 0 0 0.25 0"/>
<feBlend mode="normal" in2="BackgroundImageFix" result="effect1_dropShadow_316_5572"/>
<feBlend mode="normal" in="SourceGraphic" in2="effect1_dropShadow_316_5572" result="shape"/>
</filter>
</defs>
</svg>
