<svg width="60" height="24" viewBox="0 0 60 24" fill="none" xmlns="http://www.w3.org/2000/svg">
<rect width="60" height="24" rx="12" fill="#808080"/>
<g filter="url(#filter0_d_316_5554)">
<path d="M17.2799 6.801C17.3826 6.801 17.4689 6.80567 17.5389 6.815C17.6089 6.82433 17.6719 6.843 17.7279 6.871C17.7839 6.89433 17.8376 6.92933 17.8889 6.976C17.9402 7.02267 17.9986 7.08567 18.0639 7.165L22.9079 13.29C22.8892 13.094 22.8752 12.905 22.8659 12.723C22.8566 12.5363 22.8519 12.3613 22.8519 12.198V6.801H24.9379V17H23.7059C23.5239 17 23.3699 16.972 23.2439 16.916C23.1179 16.86 22.9966 16.7573 22.8799 16.608L18.0709 10.532C18.0849 10.7093 18.0966 10.8843 18.1059 11.057C18.1152 11.225 18.1199 11.3837 18.1199 11.533V17H16.0339V6.801H17.2799ZM32.8599 8.873C32.7899 8.985 32.7153 9.069 32.6359 9.125C32.5613 9.181 32.4633 9.209 32.3419 9.209C32.2346 9.209 32.1179 9.17633 31.9919 9.111C31.8706 9.041 31.7306 8.964 31.5719 8.88C31.4179 8.796 31.2406 8.72133 31.0399 8.656C30.8393 8.586 30.6106 8.551 30.3539 8.551C29.9106 8.551 29.5793 8.64667 29.3599 8.838C29.1453 9.02467 29.0379 9.279 29.0379 9.601C29.0379 9.80633 29.1033 9.97667 29.2339 10.112C29.3646 10.2473 29.5349 10.364 29.7449 10.462C29.9596 10.56 30.2023 10.651 30.4729 10.735C30.7483 10.8143 31.0283 10.9053 31.3129 11.008C31.5976 11.106 31.8753 11.2227 32.1459 11.358C32.4213 11.4933 32.6639 11.666 32.8739 11.876C33.0886 12.086 33.2613 12.3427 33.3919 12.646C33.5226 12.9447 33.5879 13.3063 33.5879 13.731C33.5879 14.2023 33.5063 14.6433 33.3429 15.054C33.1796 15.4647 32.9416 15.824 32.6289 16.132C32.3209 16.4353 31.9383 16.6757 31.4809 16.853C31.0283 17.0257 30.5126 17.112 29.9339 17.112C29.6166 17.112 29.2923 17.0793 28.9609 17.014C28.6343 16.9487 28.3169 16.8577 28.0089 16.741C27.7009 16.6197 27.4116 16.4773 27.1409 16.314C26.8703 16.1507 26.6346 15.9687 26.4339 15.768L27.1339 14.662C27.1853 14.578 27.2576 14.5103 27.3509 14.459C27.4443 14.4077 27.5446 14.382 27.6519 14.382C27.7919 14.382 27.9319 14.4263 28.0719 14.515C28.2166 14.6037 28.3776 14.7017 28.5549 14.809C28.7369 14.9163 28.9446 15.0143 29.1779 15.103C29.4113 15.1917 29.6866 15.236 30.0039 15.236C30.4333 15.236 30.7669 15.1427 31.0049 14.956C31.2429 14.7647 31.3619 14.4637 31.3619 14.053C31.3619 13.815 31.2966 13.6213 31.1659 13.472C31.0353 13.3227 30.8626 13.199 30.6479 13.101C30.4379 13.003 30.1976 12.9167 29.9269 12.842C29.6563 12.7673 29.3786 12.6857 29.0939 12.597C28.8093 12.5037 28.5316 12.3917 28.2609 12.261C27.9903 12.1257 27.7476 11.9507 27.5329 11.736C27.3229 11.5167 27.1526 11.246 27.0219 10.924C26.8913 10.5973 26.8259 10.196 26.8259 9.72C26.8259 9.33733 26.9029 8.964 27.0569 8.6C27.2109 8.236 27.4373 7.91167 27.7359 7.627C28.0346 7.34233 28.4009 7.116 28.8349 6.948C29.2689 6.77533 29.7659 6.689 30.3259 6.689C30.6386 6.689 30.9419 6.71467 31.2359 6.766C31.5346 6.81267 31.8169 6.885 32.0829 6.983C32.3489 7.07633 32.5963 7.19067 32.8249 7.326C33.0583 7.45667 33.2659 7.606 33.4479 7.774L32.8599 8.873ZM34.4838 6.801H36.3878C36.5932 6.801 36.7612 6.84767 36.8918 6.941C37.0225 7.03433 37.1158 7.158 37.1718 7.312L39.1458 12.772C39.2345 13.01 39.3232 13.269 39.4118 13.549C39.5052 13.829 39.5915 14.123 39.6708 14.431C39.7362 14.123 39.8108 13.829 39.8948 13.549C39.9835 13.269 40.0698 13.01 40.1538 12.772L42.1138 7.312C42.1605 7.18133 42.2515 7.06467 42.3868 6.962C42.5222 6.85467 42.6878 6.801 42.8838 6.801H44.8018L40.7138 17H38.5718L34.4838 6.801Z" fill="white"/>
</g>
<defs>
<filter id="filter0_d_316_5554" x="14.0339" y="6.68896" width="32.7679" height="14.4231" filterUnits="userSpaceOnUse" color-interpolation-filters="sRGB">
<feFlood flood-opacity="0" result="BackgroundImageFix"/>
<feColorMatrix in="SourceAlpha" type="matrix" values="0 0 0 0 0 0 0 0 0 0 0 0 0 0 0 0 0 0 127 0" result="hardAlpha"/>
<feOffset dy="2"/>
<feGaussianBlur stdDeviation="1"/>
<feColorMatrix type="matrix" values="0 0 0 0 0 0 0 0 0 0 0 0 0 0 0 0 0 0 0.25 0"/>
<feBlend mode="normal" in2="BackgroundImageFix" result="effect1_dropShadow_316_5554"/>
<feBlend mode="normal" in="SourceGraphic" in2="effect1_dropShadow_316_5554" result="shape"/>
</filter>
</defs>
</svg>
