<svg width="60" height="24" viewBox="0 0 60 24" fill="none" xmlns="http://www.w3.org/2000/svg">
<rect width="60" height="24" rx="12" fill="#808080"/>
<g filter="url(#filter0_d_316_5575)">
<path d="M24.6682 13.591V17H22.3022V6.801H25.9002C26.6189 6.801 27.2349 6.88733 27.7482 7.06C28.2662 7.228 28.6909 7.46133 29.0222 7.76C29.3582 8.05867 29.6055 8.411 29.7642 8.817C29.9229 9.223 30.0022 9.66167 30.0022 10.133C30.0022 10.6417 29.9205 11.1083 29.7572 11.533C29.5939 11.9577 29.3442 12.3217 29.0082 12.625C28.6722 12.9283 28.2452 13.1663 27.7272 13.339C27.2139 13.507 26.6049 13.591 25.9002 13.591H24.6682ZM24.6682 11.806H25.9002C26.5162 11.806 26.9595 11.659 27.2302 11.365C27.5009 11.071 27.6362 10.6603 27.6362 10.133C27.6362 9.89967 27.6012 9.68733 27.5312 9.496C27.4612 9.30467 27.3539 9.14133 27.2092 9.006C27.0692 8.866 26.8895 8.75867 26.6702 8.684C26.4555 8.60933 26.1989 8.572 25.9002 8.572H24.6682V11.806ZM37.4739 8.873C37.4039 8.985 37.3293 9.069 37.2499 9.125C37.1753 9.181 37.0773 9.209 36.9559 9.209C36.8486 9.209 36.7319 9.17633 36.6059 9.111C36.4846 9.041 36.3446 8.964 36.1859 8.88C36.0319 8.796 35.8546 8.72133 35.6539 8.656C35.4533 8.586 35.2246 8.551 34.9679 8.551C34.5246 8.551 34.1933 8.64667 33.9739 8.838C33.7593 9.02467 33.6519 9.279 33.6519 9.601C33.6519 9.80633 33.7173 9.97667 33.8479 10.112C33.9786 10.2473 34.1489 10.364 34.3589 10.462C34.5736 10.56 34.8163 10.651 35.0869 10.735C35.3623 10.8143 35.6423 10.9053 35.9269 11.008C36.2116 11.106 36.4893 11.2227 36.7599 11.358C37.0353 11.4933 37.2779 11.666 37.4879 11.876C37.7026 12.086 37.8753 12.3427 38.0059 12.646C38.1366 12.9447 38.2019 13.3063 38.2019 13.731C38.2019 14.2023 38.1203 14.6433 37.9569 15.054C37.7936 15.4647 37.5556 15.824 37.2429 16.132C36.9349 16.4353 36.5523 16.6757 36.0949 16.853C35.6423 17.0257 35.1266 17.112 34.5479 17.112C34.2306 17.112 33.9063 17.0793 33.5749 17.014C33.2483 16.9487 32.9309 16.8577 32.6229 16.741C32.3149 16.6197 32.0256 16.4773 31.7549 16.314C31.4843 16.1507 31.2486 15.9687 31.0479 15.768L31.7479 14.662C31.7993 14.578 31.8716 14.5103 31.9649 14.459C32.0583 14.4077 32.1586 14.382 32.2659 14.382C32.4059 14.382 32.5459 14.4263 32.6859 14.515C32.8306 14.6037 32.9916 14.7017 33.1689 14.809C33.3509 14.9163 33.5586 15.0143 33.7919 15.103C34.0253 15.1917 34.3006 15.236 34.6179 15.236C35.0473 15.236 35.3809 15.1427 35.6189 14.956C35.8569 14.7647 35.9759 14.4637 35.9759 14.053C35.9759 13.815 35.9106 13.6213 35.7799 13.472C35.6493 13.3227 35.4766 13.199 35.2619 13.101C35.0519 13.003 34.8116 12.9167 34.5409 12.842C34.2703 12.7673 33.9926 12.6857 33.7079 12.597C33.4233 12.5037 33.1456 12.3917 32.8749 12.261C32.6043 12.1257 32.3616 11.9507 32.1469 11.736C31.9369 11.5167 31.7666 11.246 31.6359 10.924C31.5053 10.5973 31.4399 10.196 31.4399 9.72C31.4399 9.33733 31.5169 8.964 31.6709 8.6C31.8249 8.236 32.0513 7.91167 32.3499 7.627C32.6486 7.34233 33.0149 7.116 33.4489 6.948C33.8829 6.77533 34.3799 6.689 34.9399 6.689C35.2526 6.689 35.5559 6.71467 35.8499 6.766C36.1486 6.81267 36.4309 6.885 36.6969 6.983C36.9629 7.07633 37.2103 7.19067 37.4389 7.326C37.6723 7.45667 37.8799 7.606 38.0619 7.774L37.4739 8.873Z" fill="white"/>
</g>
<defs>
<filter id="filter0_d_316_5575" x="20.3022" y="6.68896" width="19.8997" height="14.4231" filterUnits="userSpaceOnUse" color-interpolation-filters="sRGB">
<feFlood flood-opacity="0" result="BackgroundImageFix"/>
<feColorMatrix in="SourceAlpha" type="matrix" values="0 0 0 0 0 0 0 0 0 0 0 0 0 0 0 0 0 0 127 0" result="hardAlpha"/>
<feOffset dy="2"/>
<feGaussianBlur stdDeviation="1"/>
<feColorMatrix type="matrix" values="0 0 0 0 0 0 0 0 0 0 0 0 0 0 0 0 0 0 0.25 0"/>
<feBlend mode="normal" in2="BackgroundImageFix" result="effect1_dropShadow_316_5575"/>
<feBlend mode="normal" in="SourceGraphic" in2="effect1_dropShadow_316_5575" result="shape"/>
</filter>
</defs>
</svg>
