<svg width="60" height="24" viewBox="0 0 60 24" fill="none" xmlns="http://www.w3.org/2000/svg">
<rect width="60" height="24" rx="12" fill="#27B06E"/>
<g filter="url(#filter0_d_316_5566)">
<path d="M17.5044 13.227V17H15.1384V6.801H18.4564C19.1937 6.801 19.8214 6.878 20.3394 7.032C20.8621 7.18133 21.2867 7.39133 21.6134 7.662C21.9447 7.93267 22.1851 8.25233 22.3344 8.621C22.4837 8.98967 22.5584 9.391 22.5584 9.825C22.5584 10.1563 22.5141 10.469 22.4254 10.763C22.3367 11.057 22.2037 11.33 22.0264 11.582C21.8537 11.8293 21.6391 12.051 21.3824 12.247C21.1304 12.443 20.8387 12.604 20.5074 12.73C20.6661 12.8093 20.8131 12.9073 20.9484 13.024C21.0884 13.1407 21.2097 13.283 21.3124 13.451L23.4824 17H21.3404C20.9437 17 20.6591 16.8507 20.4864 16.552L18.7924 13.591C18.7177 13.4603 18.6291 13.367 18.5264 13.311C18.4284 13.255 18.2884 13.227 18.1064 13.227H17.5044ZM17.5044 11.596H18.4564C18.7784 11.596 19.0514 11.5563 19.2754 11.477C19.5041 11.393 19.6907 11.2787 19.8354 11.134C19.9801 10.9893 20.0851 10.8213 20.1504 10.63C20.2157 10.434 20.2484 10.224 20.2484 10C20.2484 9.552 20.1014 9.202 19.8074 8.95C19.5181 8.698 19.0677 8.572 18.4564 8.572H17.5044V11.596ZM26.2549 6.801C26.3576 6.801 26.4439 6.80567 26.5139 6.815C26.5839 6.82433 26.6469 6.843 26.7029 6.871C26.7589 6.89433 26.8126 6.92933 26.8639 6.976C26.9153 7.02267 26.9736 7.08567 27.0389 7.165L31.8829 13.29C31.8643 13.094 31.8503 12.905 31.8409 12.723C31.8316 12.5363 31.8269 12.3613 31.8269 12.198V6.801H33.9129V17H32.6809C32.4989 17 32.3449 16.972 32.2189 16.916C32.0929 16.86 31.9716 16.7573 31.8549 16.608L27.0459 10.532C27.0599 10.7093 27.0716 10.8843 27.0809 11.057C27.0903 11.225 27.0949 11.3837 27.0949 11.533V17H25.0089V6.801H26.2549ZM45.405 11.897C45.405 12.6343 45.2766 13.3157 45.02 13.941C44.768 14.5617 44.411 15.1007 43.949 15.558C43.487 16.0107 42.9293 16.3653 42.276 16.622C41.6273 16.874 40.9063 17 40.113 17H36.151V6.801H40.113C40.9063 6.801 41.6273 6.92933 42.276 7.186C42.9293 7.44267 43.487 7.79733 43.949 8.25C44.411 8.70267 44.768 9.24167 45.02 9.867C45.2766 10.4877 45.405 11.1643 45.405 11.897ZM42.983 11.897C42.983 11.393 42.9176 10.938 42.787 10.532C42.6563 10.126 42.4673 9.783 42.22 9.503C41.9773 9.21833 41.6786 9.00133 41.324 8.852C40.9693 8.698 40.5656 8.621 40.113 8.621H38.531V15.18H40.113C40.5656 15.18 40.9693 15.1053 41.324 14.956C41.6786 14.802 41.9773 14.585 42.22 14.305C42.4673 14.0203 42.6563 13.675 42.787 13.269C42.9176 12.863 42.983 12.4057 42.983 11.897Z" fill="white"/>
</g>
<defs>
<filter id="filter0_d_316_5566" x="13.1384" y="6.80103" width="34.2666" height="14.199" filterUnits="userSpaceOnUse" color-interpolation-filters="sRGB">
<feFlood flood-opacity="0" result="BackgroundImageFix"/>
<feColorMatrix in="SourceAlpha" type="matrix" values="0 0 0 0 0 0 0 0 0 0 0 0 0 0 0 0 0 0 127 0" result="hardAlpha"/>
<feOffset dy="2"/>
<feGaussianBlur stdDeviation="1"/>
<feColorMatrix type="matrix" values="0 0 0 0 0 0 0 0 0 0 0 0 0 0 0 0 0 0 0.25 0"/>
<feBlend mode="normal" in2="BackgroundImageFix" result="effect1_dropShadow_316_5566"/>
<feBlend mode="normal" in="SourceGraphic" in2="effect1_dropShadow_316_5566" result="shape"/>
</filter>
</defs>
</svg>
