<svg width="108" height="45" viewBox="0 0 108 45" fill="none" xmlns="http://www.w3.org/2000/svg">
<path d="M3.24922 13.156C2.2241 11.894 1.49297 10.2386 1.268 8.41693C-3.09067 18.0059 4.39704 28.503 14.436 27.2331C13.7381 26.2853 13.1936 25.2081 12.846 24.0412C7.11194 24.0702 2.69448 18.9774 3.24922 13.156Z" fill="#44D6F5"/>
<path d="M28.2834 22.9363C26.3765 28.7511 18.7516 28.7696 16.6809 23.2003C26.5608 18.3225 22.7215 3.61804 11.9994 4.28319C15.0914 9.35097 8.59779 14.1918 4.87875 9.87623C3.88052 8.69638 3.53753 6.80388 4.13135 5.26507C4.97345 2.75757 8.48261 1.57509 10.4919 1.16597C13.2357 0.638072 16.1434 1.0815 18.6262 2.3986C26.4584 6.57689 27.8687 17.1849 21.9101 23.4141C23.863 25.1852 26.7297 24.85 28.2834 22.9363Z" fill="white"/>
<path d="M60.6618 27.3367H58.4351C58.1853 27.3367 57.9783 27.2741 57.8142 27.149C57.6572 27.0165 57.543 26.8545 57.4716 26.6632L56.3155 23.406H49.903L48.7469 26.6632C48.6898 26.8325 48.5756 26.987 48.4043 27.1269C48.2402 27.2667 48.0368 27.3367 47.7941 27.3367H45.5567L51.6373 11.3712H54.5812L60.6618 27.3367ZM50.6417 21.3082H55.5768L53.6927 15.9974C53.607 15.7619 53.5107 15.4859 53.4036 15.1694C53.3037 14.8455 53.2038 14.4958 53.1039 14.1204C53.004 14.4958 52.9041 14.8455 52.8041 15.1694C52.7114 15.4932 52.6186 15.7766 52.5258 16.0195L50.6417 21.3082Z" fill="white"/>
<path d="M59.7732 11.3712H62.0963C62.3461 11.3712 62.5495 11.4338 62.7065 11.5589C62.8635 11.684 62.9812 11.846 63.0597 12.0447L66.6995 21.783C66.8208 22.0995 66.935 22.4491 67.0421 22.8319C67.1563 23.2073 67.2633 23.6048 67.3632 24.0243C67.5274 23.1778 67.7308 22.4307 67.9734 21.783L71.6025 12.0447C71.6667 11.8754 71.7809 11.7208 71.9451 11.581C72.1092 11.4411 72.3126 11.3712 72.5553 11.3712H74.8783L68.6265 27.3367H66.0251L59.7732 11.3712Z" fill="white"/>
<path d="M87.1135 11.3712V13.734H80.2515V18.1615H85.6576V20.447H80.2515V24.9628H87.1135V27.3367H77.3504V11.3712H87.1135Z" fill="white"/>
<path d="M93.4353 21.0984V27.3367H90.5556V11.3712H95.2766C96.3328 11.3712 97.2357 11.4853 97.985 11.7135C98.7415 11.9343 99.3589 12.2471 99.837 12.652C100.322 13.0568 100.676 13.5426 100.897 14.1094C101.125 14.6688 101.239 15.2871 101.239 15.9643C101.239 16.5016 101.161 17.0095 101.004 17.488C100.854 17.9664 100.633 18.4007 100.34 18.7908C100.055 19.181 99.6978 19.5232 99.2696 19.8177C98.8486 20.1121 98.3668 20.3476 97.8244 20.5243C98.1884 20.7378 98.5024 21.0432 98.7665 21.4407L102.642 27.3367H100.051C99.8013 27.3367 99.5872 27.2851 99.4088 27.1821C99.2375 27.079 99.0912 26.9318 98.9699 26.7405L95.7155 21.6284C95.5942 21.437 95.4586 21.3009 95.3087 21.2199C95.166 21.1389 94.9519 21.0984 94.6664 21.0984H93.4353ZM93.4353 18.9675H95.2338C95.7762 18.9675 96.2472 18.8976 96.6469 18.7577C97.0537 18.6179 97.3855 18.4265 97.6425 18.1836C97.9065 17.9333 98.1028 17.6389 98.2312 17.3003C98.3597 16.9617 98.4239 16.59 98.4239 16.1851C98.4239 15.3755 98.1634 14.7535 97.6425 14.3192C97.1286 13.8849 96.34 13.6678 95.2766 13.6678H93.4353V18.9675Z" fill="white"/>
<path d="M37.4148 24.7627C37.9715 24.7627 38.4676 24.667 38.9029 24.4757C39.3455 24.2844 39.7166 24.0158 40.0164 23.6699C40.3233 23.3241 40.5552 22.9046 40.7123 22.4116C40.8764 21.9186 40.9585 21.3667 40.9585 20.7559V11.3712H43.8385V20.7559C43.8385 21.7052 43.6886 22.5845 43.3888 23.394C43.0962 24.1961 42.6715 24.8914 42.1148 25.4801C41.5581 26.0615 40.8836 26.5177 40.0913 26.8488C39.2991 27.1726 38.4069 27.3345 37.4148 27.3345C36.4227 27.3345 35.5305 27.1726 34.7383 26.8488C33.946 26.5177 33.2715 26.0615 32.7148 25.4801C32.1652 24.8914 31.7406 24.1961 31.4408 23.394C31.1482 22.5845 31.0018 21.7052 31.0018 20.7559V11.3712H33.8818V20.7449C33.8818 21.3556 33.9603 21.9075 34.1173 22.4005C34.2815 22.8936 34.5134 23.3167 34.8132 23.6699C35.113 24.0158 35.4806 24.2844 35.9159 24.4757C36.3585 24.667 36.8581 24.7627 37.4148 24.7627Z" fill="white"/>
<path d="M7.91731 33.8149H4.96945V42.0973H3.1507V33.8149H0.202835V32.3207H7.91731V33.8149ZM18.1901 37.209C18.1901 37.9257 18.0707 38.5905 17.8318 39.2035C17.5974 39.812 17.2639 40.3394 16.8312 40.7856C16.3984 41.2319 15.8778 41.5812 15.2693 41.8336C14.6608 42.0815 13.9847 42.2055 13.241 42.2055C12.5018 42.2055 11.8279 42.0815 11.2194 41.8336C10.6109 41.5812 10.088 41.2319 9.65081 40.7856C9.21809 40.3394 8.88229 39.812 8.6434 39.2035C8.4045 38.5905 8.28506 37.9257 8.28506 37.209C8.28506 36.4923 8.4045 35.8297 8.6434 35.2212C8.88229 34.6082 9.21809 34.0786 9.65081 33.6323C10.088 33.1861 10.6109 32.839 11.2194 32.5911C11.8279 32.3387 12.5018 32.2125 13.241 32.2125C13.7368 32.2125 14.2033 32.2711 14.6405 32.3883C15.0778 32.501 15.4789 32.6632 15.844 32.8751C16.2091 33.0824 16.5359 33.3371 16.8244 33.6391C17.1174 33.9366 17.3653 34.2701 17.5681 34.6397C17.771 35.0093 17.9242 35.4105 18.0279 35.8432C18.1361 36.2759 18.1901 36.7312 18.1901 37.209ZM16.3308 37.209C16.3308 36.6726 16.2587 36.1925 16.1145 35.7688C15.9702 35.3406 15.7651 34.9778 15.4992 34.6803C15.2333 34.3828 14.9087 34.1552 14.5256 33.9974C14.147 33.8397 13.7188 33.7608 13.241 33.7608C12.7632 33.7608 12.3327 33.8397 11.9496 33.9974C11.571 34.1552 11.2464 34.3828 10.976 34.6803C10.7101 34.9778 10.505 35.3406 10.3607 35.7688C10.2165 36.1925 10.1444 36.6726 10.1444 37.209C10.1444 37.7454 10.2165 38.2277 10.3607 38.6559C10.505 39.0796 10.7101 39.4402 10.976 39.7376C11.2464 40.0306 11.571 40.256 11.9496 40.4138C12.3327 40.5715 12.7632 40.6504 13.241 40.6504C13.7188 40.6504 14.147 40.5715 14.5256 40.4138C14.9087 40.256 15.2333 40.0306 15.4992 39.7376C15.7651 39.4402 15.9702 39.0796 16.1145 38.6559C16.2587 38.2277 16.3308 37.7454 16.3308 37.209ZM23.7224 40.6301C24.0739 40.6301 24.3872 40.5715 24.6622 40.4543C24.9416 40.3371 25.176 40.1726 25.3653 39.9608C25.5546 39.7489 25.6989 39.492 25.798 39.19C25.9017 38.888 25.9535 38.5499 25.9535 38.1758V32.3207H27.7723V38.1758C27.7723 38.7573 27.6776 39.2959 27.4883 39.7917C27.3035 40.283 27.0353 40.709 26.6837 41.0696C26.3367 41.4257 25.913 41.7051 25.4126 41.908C24.9123 42.1063 24.3489 42.2055 23.7224 42.2055C23.0913 42.2055 22.5256 42.1063 22.0253 41.908C21.525 41.7051 21.099 41.4257 20.7474 41.0696C20.4004 40.709 20.1322 40.283 19.9429 39.7917C19.7581 39.2959 19.6657 38.7573 19.6657 38.1758V32.3207H21.4844V38.1691C21.4844 38.5432 21.534 38.8812 21.6332 39.1832C21.7368 39.4852 21.8833 39.7444 22.0726 39.9608C22.2665 40.1726 22.5008 40.3371 22.7758 40.4543C23.0553 40.5715 23.3708 40.6301 23.7224 40.6301ZM32.7781 36.9723C33.1206 36.9723 33.4181 36.9295 33.6706 36.8439C33.9275 36.7582 34.1371 36.641 34.2993 36.4923C34.4661 36.339 34.5901 36.1587 34.6712 35.9514C34.7523 35.7441 34.7929 35.5164 34.7929 35.2685C34.7929 34.7727 34.6284 34.3918 34.2993 34.1259C33.9748 33.8599 33.4767 33.727 32.8051 33.727H31.6422V36.9723H32.7781ZM37.4568 42.0973H35.8138C35.5028 42.0973 35.2775 41.9756 35.1377 41.7322L33.0823 38.6018C33.0057 38.4846 32.9201 38.4012 32.8254 38.3516C32.7353 38.302 32.6 38.2772 32.4197 38.2772H31.6422V42.0973H29.8235V32.3207H32.8051C33.4677 32.3207 34.0357 32.3905 34.5089 32.5303C34.9867 32.6655 35.3766 32.857 35.6786 33.105C35.9851 33.3529 36.2105 33.6504 36.3547 33.9974C36.499 34.34 36.5711 34.7186 36.5711 35.1333C36.5711 35.4623 36.5215 35.7734 36.4223 36.0663C36.3277 36.3593 36.188 36.6253 36.0031 36.8642C35.8229 37.1031 35.5975 37.3126 35.327 37.4929C35.0611 37.6732 34.7568 37.8152 34.4143 37.9189C34.5315 37.9865 34.6396 38.0676 34.7388 38.1623C34.838 38.2524 34.9281 38.3606 35.0093 38.4868L37.4568 42.0973ZM46.7544 32.3207V42.0973H45.8214C45.6772 42.0973 45.5555 42.0748 45.4563 42.0297C45.3616 41.9801 45.2692 41.899 45.1791 41.7863L40.0744 35.2685C40.1015 35.566 40.115 35.841 40.115 36.0934V42.0973H38.5126V32.3207H39.4659C39.5425 32.3207 39.6079 32.3252 39.662 32.3342C39.7206 32.3387 39.7702 32.3522 39.8107 32.3747C39.8558 32.3928 39.8986 32.4221 39.9392 32.4626C39.9798 32.4987 40.0248 32.5483 40.0744 32.6114L45.1994 39.1562C45.1859 38.9984 45.1746 38.8429 45.1656 38.6897C45.1566 38.5364 45.152 38.3944 45.152 38.2637V32.3207H46.7544ZM54.0972 38.4057L52.9072 35.1536C52.8486 35.0093 52.7878 34.8381 52.7246 34.6397C52.6615 34.4414 52.5984 34.2273 52.5353 33.9974C52.4767 34.2273 52.4159 34.4437 52.3528 34.6465C52.2897 34.8448 52.2288 35.0184 52.1702 35.1671L50.987 38.4057H54.0972ZM57.3087 42.0973H55.9024C55.7446 42.0973 55.6162 42.059 55.517 41.9824C55.4178 41.9012 55.3435 41.8021 55.2939 41.6849L54.5637 39.6903H50.5138L49.7835 41.6849C49.7475 41.7885 49.6776 41.8832 49.5739 41.9688C49.4703 42.0545 49.3418 42.0973 49.1886 42.0973H47.7687L51.6158 32.3207H53.4684L57.3087 42.0973ZM68.9222 32.3207V42.0973H67.3198V35.7824C67.3198 35.53 67.3333 35.2573 67.3603 34.9643L64.4057 40.5152C64.266 40.7811 64.0519 40.9141 63.7634 40.9141H63.5065C63.218 40.9141 63.0039 40.7811 62.8642 40.5152L59.8757 34.944C59.8893 35.0927 59.9005 35.2392 59.9095 35.3835C59.9185 35.5277 59.9231 35.6607 59.9231 35.7824V42.0973H58.3207V32.3207H59.6932C59.7743 32.3207 59.8442 32.3229 59.9028 32.3274C59.9614 32.3319 60.0132 32.3432 60.0583 32.3612C60.1079 32.3793 60.1507 32.4086 60.1867 32.4491C60.2273 32.4897 60.2656 32.5438 60.3017 32.6114L63.2293 38.0406C63.3059 38.1848 63.3758 38.3336 63.4389 38.4868C63.5065 38.6401 63.5718 38.7978 63.6349 38.9601C63.698 38.7933 63.7634 38.6333 63.831 38.4801C63.8986 38.3223 63.9707 38.1713 64.0474 38.0271L66.9344 32.6114C66.9704 32.5438 67.0087 32.4897 67.0493 32.4491C67.0899 32.4086 67.1327 32.3793 67.1778 32.3612C67.2274 32.3432 67.2814 32.3319 67.34 32.3274C67.3986 32.3229 67.4685 32.3207 67.5496 32.3207H68.9222ZM72.929 33.7675V36.4788H76.3501V37.8783H72.929V40.6436H77.2696V42.0973H71.1035V32.3207H77.2696V33.7675H72.929ZM87.1233 32.3207V42.0973H86.1902C86.046 42.0973 85.9243 42.0748 85.8251 42.0297C85.7305 41.9801 85.6381 41.899 85.5479 41.7863L80.4433 35.2685C80.4703 35.566 80.4838 35.841 80.4838 36.0934V42.0973H78.8814V32.3207H79.8348C79.9114 32.3207 79.9767 32.3252 80.0308 32.3342C80.0894 32.3387 80.139 32.3522 80.1796 32.3747C80.2247 32.3928 80.2675 32.4221 80.308 32.4626C80.3486 32.4987 80.3937 32.5483 80.4433 32.6114L85.5682 39.1562C85.5547 38.9984 85.5434 38.8429 85.5344 38.6897C85.5254 38.5364 85.5209 38.3944 85.5209 38.2637V32.3207H87.1233ZM96.1292 33.8149H93.1814V42.0973H91.3626V33.8149H88.4148V32.3207H96.1292V33.8149ZM102.588 34.0988C102.534 34.1935 102.476 34.2634 102.412 34.3084C102.354 34.349 102.28 34.3693 102.189 34.3693C102.095 34.3693 101.991 34.3355 101.878 34.2679C101.77 34.1958 101.639 34.1169 101.486 34.0312C101.333 33.9456 101.153 33.869 100.945 33.8014C100.742 33.7292 100.501 33.6932 100.222 33.6932C99.9694 33.6932 99.7486 33.7247 99.5593 33.7878C99.37 33.8464 99.2099 33.9298 99.0792 34.038C98.953 34.1462 98.8584 34.2769 98.7953 34.4301C98.7322 34.5789 98.7006 34.7434 98.7006 34.9237C98.7006 35.1536 98.7637 35.3452 98.8899 35.4984C99.0206 35.6517 99.1919 35.7824 99.4038 35.8905C99.6156 35.9987 99.8568 36.0956 100.127 36.1813C100.398 36.2669 100.675 36.3593 100.959 36.4585C101.243 36.5531 101.52 36.6658 101.79 36.7965C102.061 36.9228 102.302 37.085 102.514 37.2833C102.726 37.4772 102.895 37.7161 103.021 38C103.152 38.284 103.217 38.6288 103.217 39.0345C103.217 39.4762 103.14 39.8909 102.987 40.2785C102.838 40.6617 102.618 40.9975 102.325 41.286C102.036 41.5699 101.682 41.7953 101.263 41.9621C100.844 42.1243 100.364 42.2055 99.823 42.2055C99.5119 42.2055 99.2054 42.1739 98.9034 42.1108C98.6014 42.0522 98.3107 41.9666 98.0312 41.8539C97.7563 41.7412 97.4971 41.606 97.2537 41.4482C97.0103 41.2905 96.794 41.1147 96.6046 40.9208L97.1388 40.0487C97.1839 39.9856 97.2424 39.9337 97.3146 39.8932C97.3867 39.8481 97.4633 39.8255 97.5444 39.8255C97.6571 39.8255 97.7788 39.8729 97.9095 39.9675C98.0403 40.0577 98.1958 40.1591 98.3761 40.2718C98.5564 40.3845 98.766 40.4881 99.0049 40.5828C99.2483 40.6729 99.539 40.718 99.877 40.718C100.395 40.718 100.797 40.5963 101.081 40.3529C101.364 40.105 101.506 39.7512 101.506 39.2914C101.506 39.0345 101.441 38.8249 101.31 38.6626C101.184 38.5004 101.015 38.3651 100.803 38.257C100.591 38.1443 100.35 38.0496 100.08 37.973C99.8094 37.8964 99.5345 37.813 99.255 37.7228C98.9756 37.6327 98.7006 37.5245 98.4302 37.3983C98.1597 37.2721 97.9186 37.1076 97.7067 36.9047C97.4949 36.7019 97.3236 36.4495 97.1929 36.1475C97.0667 35.841 97.0036 35.4646 97.0036 35.0184C97.0036 34.6623 97.0734 34.3152 97.2131 33.9771C97.3574 33.6391 97.5647 33.3393 97.8352 33.0779C98.1056 32.8165 98.4392 32.6069 98.8358 32.4491C99.2325 32.2914 99.6877 32.2125 100.202 32.2125C100.779 32.2125 101.31 32.3026 101.797 32.4829C102.284 32.6632 102.699 32.9156 103.041 33.2402L102.588 34.0988Z" fill="white"/>
</svg>
