<svg width="384" height="102" viewBox="0 0 384 102" fill="none" xmlns="http://www.w3.org/2000/svg">
    <path d="M7.68914 28.8878C5.26324 25.9014 3.53304 21.984 3.00068 17.6731C-7.31394 40.3649 10.4054 65.206 34.1623 62.2008C32.5108 59.9579 31.2222 57.4088 30.3994 54.6473C16.8301 54.716 6.37637 42.6641 7.68914 28.8878Z" fill="#44D6F5"/>
    <path d="M66.9315 52.0327C62.4189 65.7931 44.3748 65.8368 39.4746 52.6573C62.855 41.1143 53.7694 6.31666 28.3962 7.89071C35.7132 19.8834 20.3463 31.339 11.5454 21.1264C9.18308 18.3344 8.37143 13.8558 9.77668 10.2143C11.7695 4.2804 20.0737 1.4821 24.8286 0.513937C31.3218 -0.735305 38.2027 0.314058 44.078 3.43092C62.6128 13.3187 65.9502 38.4222 51.8493 53.1632C56.4709 57.3544 63.2548 56.5612 66.9315 52.0327Z" fill="white"/>
    <path d="M143.554 62.4459H138.284C137.693 62.4459 137.203 62.2978 136.815 62.0017C136.443 61.6881 136.173 61.3049 136.004 60.852L133.268 53.1441H118.094L115.357 60.852C115.222 61.2527 114.952 61.6185 114.547 61.9494C114.158 62.2804 113.677 62.4459 113.103 62.4459H107.808L122.198 24.6642H129.164L143.554 62.4459ZM119.842 48.1798H131.52L127.062 35.612C126.859 35.0546 126.631 34.4014 126.378 33.6524C126.141 32.886 125.905 32.0586 125.668 31.1702C125.432 32.0586 125.195 32.886 124.959 33.6524C124.739 34.4188 124.52 35.0894 124.3 35.6643L119.842 48.1798Z" fill="white"/>
    <path d="M141.451 24.6642H146.948C147.539 24.6642 148.021 24.8123 148.392 25.1084C148.764 25.4045 149.043 25.7877 149.228 26.2581L157.842 49.3033C158.129 50.0523 158.399 50.8797 158.652 51.7855C158.923 52.6738 159.176 53.6145 159.412 54.6073C159.801 52.6042 160.282 50.8361 160.856 49.3033L169.444 26.2581C169.596 25.8574 169.867 25.4916 170.255 25.1607C170.644 24.8297 171.125 24.6642 171.699 24.6642H177.196L162.402 62.4459H156.246L141.451 24.6642Z" fill="white"/>
    <path d="M206.151 24.6642V30.2557H189.912V40.7332H202.705V46.1417H189.912V56.8283H206.151V62.4459H183.047V24.6642H206.151Z" fill="white"/>
    <path d="M221.111 47.6833V62.4459H214.296V24.6642H225.468C227.968 24.6642 230.104 24.9342 231.878 25.4742C233.668 25.9968 235.129 26.7371 236.26 27.6951C237.409 28.6532 238.245 29.8028 238.768 31.1441C239.309 32.4679 239.579 33.9311 239.579 35.5336C239.579 36.8052 239.393 38.0071 239.022 39.1393C238.667 40.2716 238.143 41.2993 237.451 42.2225C236.775 43.1457 235.931 43.9557 234.918 44.6524C233.921 45.3492 232.781 45.9066 231.498 46.3246C232.359 46.8298 233.102 47.5527 233.727 48.4933L242.898 62.4459H236.767C236.176 62.4459 235.669 62.3239 235.247 62.0801C234.842 61.8362 234.495 61.4878 234.208 61.0349L226.507 48.9375C226.22 48.4846 225.899 48.1623 225.544 47.9707C225.206 47.7791 224.7 47.6833 224.024 47.6833H221.111ZM221.111 42.6405H225.367C226.65 42.6405 227.765 42.4751 228.711 42.1441C229.674 41.8131 230.459 41.3603 231.067 40.7854C231.692 40.1932 232.156 39.4964 232.46 38.6952C232.764 37.8939 232.916 37.0142 232.916 36.0562C232.916 34.1401 232.3 32.6682 231.067 31.6405C229.851 30.6128 227.985 30.0989 225.468 30.0989H221.111V42.6405Z" fill="white"/>
    <path d="M88.5406 56.3546C89.858 56.3546 91.0319 56.1282 92.0622 55.6754C93.1094 55.2227 93.9877 54.5871 94.6971 53.7686C95.4234 52.9502 95.9724 51.9576 96.3439 50.7908C96.7324 49.6241 96.9267 48.3181 96.9267 46.8727V24.6642H103.742V46.8727C103.742 49.1191 103.387 51.2001 102.678 53.1156C101.985 55.0137 100.98 56.6593 99.6629 58.0524C98.3454 59.4281 96.7493 60.5078 94.8745 61.2914C92.9996 62.0576 90.8884 62.4407 88.5406 62.4407C86.1928 62.4407 84.0815 62.0576 82.2067 61.2914C80.3319 60.5078 78.7357 59.4281 77.4183 58.0524C76.1177 56.6593 75.1128 55.0137 74.4034 53.1156C73.7109 51.2001 73.3646 49.1191 73.3646 46.8727V24.6642H80.1799V46.8466C80.1799 48.292 80.3657 49.598 80.7373 50.7647C81.1257 51.9315 81.6747 52.9328 82.3841 53.7686C83.0935 54.5871 83.9633 55.2227 84.9936 55.6754C86.0408 56.1282 87.2231 56.3546 88.5406 56.3546Z" fill="white"/>
    <path d="M24.64 86.0442C24.64 87.7402 24.3573 89.3136 23.792 90.7642C23.2373 92.2042 22.448 93.4522 21.424 94.5082C20.4 95.5642 19.168 96.3909 17.728 96.9882C16.288 97.5749 14.688 97.8682 12.928 97.8682C11.1787 97.8682 9.584 97.5749 8.144 96.9882C6.704 96.3909 5.46667 95.5642 4.432 94.5082C3.408 93.4522 2.61333 92.2042 2.048 90.7642C1.48267 89.3136 1.2 87.7402 1.2 86.0442C1.2 84.3482 1.48267 82.7802 2.048 81.3402C2.61333 79.8896 3.408 78.6362 4.432 77.5802C5.46667 76.5242 6.704 75.7029 8.144 75.1162C9.584 74.5189 11.1787 74.2202 12.928 74.2202C14.1013 74.2202 15.2053 74.3589 16.24 74.6362C17.2747 74.9029 18.224 75.2869 19.088 75.7882C19.952 76.2789 20.7253 76.8816 21.408 77.5962C22.1013 78.3002 22.688 79.0896 23.168 79.9642C23.648 80.8389 24.0107 81.7882 24.256 82.8122C24.512 83.8362 24.64 84.9136 24.64 86.0442ZM20.24 86.0442C20.24 84.7749 20.0693 83.6389 19.728 82.6362C19.3867 81.6229 18.9013 80.7642 18.272 80.0602C17.6427 79.3562 16.8747 78.8176 15.968 78.4442C15.072 78.0709 14.0587 77.8842 12.928 77.8842C11.7973 77.8842 10.7787 78.0709 9.872 78.4442C8.976 78.8176 8.208 79.3562 7.568 80.0602C6.93867 80.7642 6.45333 81.6229 6.112 82.6362C5.77067 83.6389 5.6 84.7749 5.6 86.0442C5.6 87.3136 5.77067 88.4549 6.112 89.4682C6.45333 90.4709 6.93867 91.3242 7.568 92.0282C8.208 92.7216 8.976 93.2549 9.872 93.6282C10.7787 94.0016 11.7973 94.1882 12.928 94.1882C14.0587 94.1882 15.072 94.0016 15.968 93.6282C16.8747 93.2549 17.6427 92.7216 18.272 92.0282C18.9013 91.3242 19.3867 90.4709 19.728 89.4682C20.0693 88.4549 20.24 87.3136 20.24 86.0442ZM32.7398 77.9002V84.7482H41.4118V88.1882H32.7398V97.6122H28.4198V74.4762H43.0118V77.9002H32.7398ZM50.8648 77.9002V84.7482H59.5368V88.1882H50.8648V97.6122H46.5448V74.4762H61.1368V77.9002H50.8648ZM68.9898 97.6122H64.6698V74.4762H68.9898V97.6122ZM90.0578 92.1562C90.2924 92.1562 90.5004 92.2469 90.6818 92.4282L92.3778 94.2682C91.4391 95.4309 90.2818 96.3216 88.9058 96.9402C87.5404 97.5589 85.8978 97.8682 83.9778 97.8682C82.2604 97.8682 80.7138 97.5749 79.3378 96.9882C77.9724 96.4016 76.8044 95.5856 75.8338 94.5402C74.8631 93.4949 74.1164 92.2469 73.5938 90.7962C73.0818 89.3456 72.8258 87.7616 72.8258 86.0442C72.8258 84.3056 73.1031 82.7162 73.6578 81.2762C74.2124 79.8256 74.9911 78.5776 75.9938 77.5322C77.0071 76.4869 78.2124 75.6762 79.6098 75.1002C81.0071 74.5136 82.5538 74.2202 84.2498 74.2202C85.9351 74.2202 87.4284 74.4976 88.7298 75.0522C90.0418 75.6069 91.1564 76.3322 92.0738 77.2282L90.6338 79.2282C90.5484 79.3562 90.4364 79.4682 90.2978 79.5642C90.1698 79.6602 89.9884 79.7082 89.7538 79.7082C89.5938 79.7082 89.4284 79.6656 89.2578 79.5802C89.0871 79.4842 88.9004 79.3722 88.6978 79.2442C88.4951 79.1056 88.2604 78.9562 87.9938 78.7962C87.7271 78.6362 87.4178 78.4922 87.0658 78.3642C86.7138 78.2256 86.3031 78.1136 85.8338 78.0282C85.3751 77.9322 84.8418 77.8842 84.2338 77.8842C83.1991 77.8842 82.2498 78.0709 81.3858 78.4442C80.5324 78.8069 79.7964 79.3402 79.1778 80.0442C78.5591 80.7376 78.0791 81.5909 77.7378 82.6042C77.3964 83.6069 77.2258 84.7536 77.2258 86.0442C77.2258 87.3456 77.4071 88.5029 77.7698 89.5162C78.1431 90.5296 78.6444 91.3829 79.2738 92.0762C79.9031 92.7696 80.6444 93.3029 81.4978 93.6762C82.3511 94.0389 83.2684 94.2202 84.2498 94.2202C84.8364 94.2202 85.3644 94.1882 85.8338 94.1242C86.3138 94.0602 86.7511 93.9589 87.1458 93.8202C87.5511 93.6816 87.9298 93.5056 88.2818 93.2922C88.6444 93.0682 89.0018 92.7962 89.3538 92.4762C89.4604 92.3802 89.5724 92.3056 89.6898 92.2522C89.8071 92.1882 89.9298 92.1562 90.0578 92.1562ZM99.646 97.6122H95.326V74.4762H99.646V97.6122ZM117.05 88.8762L114.234 81.1802C114.095 80.8389 113.951 80.4336 113.802 79.9642C113.653 79.4949 113.503 78.9882 113.354 78.4442C113.215 78.9882 113.071 79.5002 112.922 79.9802C112.773 80.4496 112.629 80.8602 112.49 81.2122L109.69 88.8762H117.05ZM124.65 97.6122H121.322C120.949 97.6122 120.645 97.5216 120.41 97.3402C120.175 97.1482 119.999 96.9136 119.882 96.6362L118.154 91.9162H108.57L106.842 96.6362C106.757 96.8816 106.591 97.1056 106.346 97.3082C106.101 97.5109 105.797 97.6122 105.434 97.6122H102.074L111.178 74.4762H115.562L124.65 97.6122ZM140.597 94.0602V97.6122H127.045V74.4762H131.349V94.0602H140.597ZM165.674 78.0122H158.698V97.6122H154.394V78.0122H147.418V74.4762H165.674V78.0122ZM189.984 86.0442C189.984 87.7402 189.701 89.3136 189.136 90.7642C188.581 92.2042 187.792 93.4522 186.768 94.5082C185.744 95.5642 184.512 96.3909 183.072 96.9882C181.632 97.5749 180.032 97.8682 178.272 97.8682C176.522 97.8682 174.928 97.5749 173.488 96.9882C172.048 96.3909 170.81 95.5642 169.776 94.5082C168.752 93.4522 167.957 92.2042 167.392 90.7642C166.826 89.3136 166.544 87.7402 166.544 86.0442C166.544 84.3482 166.826 82.7802 167.392 81.3402C167.957 79.8896 168.752 78.6362 169.776 77.5802C170.81 76.5242 172.048 75.7029 173.488 75.1162C174.928 74.5189 176.522 74.2202 178.272 74.2202C179.445 74.2202 180.549 74.3589 181.584 74.6362C182.618 74.9029 183.568 75.2869 184.432 75.7882C185.296 76.2789 186.069 76.8816 186.752 77.5962C187.445 78.3002 188.032 79.0896 188.512 79.9642C188.992 80.8389 189.354 81.7882 189.6 82.8122C189.856 83.8362 189.984 84.9136 189.984 86.0442ZM185.584 86.0442C185.584 84.7749 185.413 83.6389 185.072 82.6362C184.73 81.6229 184.245 80.7642 183.616 80.0602C182.986 79.3562 182.218 78.8176 181.312 78.4442C180.416 78.0709 179.402 77.8842 178.272 77.8842C177.141 77.8842 176.122 78.0709 175.216 78.4442C174.32 78.8176 173.552 79.3562 172.912 80.0602C172.282 80.7642 171.797 81.6229 171.456 82.6362C171.114 83.6389 170.944 84.7749 170.944 86.0442C170.944 87.3136 171.114 88.4549 171.456 89.4682C171.797 90.4709 172.282 91.3242 172.912 92.0282C173.552 92.7216 174.32 93.2549 175.216 93.6282C176.122 94.0016 177.141 94.1882 178.272 94.1882C179.402 94.1882 180.416 94.0016 181.312 93.6282C182.218 93.2549 182.986 92.7216 183.616 92.0282C184.245 91.3242 184.73 90.4709 185.072 89.4682C185.413 88.4549 185.584 87.3136 185.584 86.0442ZM203.076 94.1402C203.908 94.1402 204.649 94.0016 205.3 93.7242C205.961 93.4469 206.516 93.0576 206.964 92.5562C207.412 92.0549 207.753 91.4469 207.988 90.7322C208.233 90.0176 208.356 89.2176 208.356 88.3322V74.4762H212.66V88.3322C212.66 89.7082 212.436 90.9829 211.988 92.1562C211.55 93.3189 210.916 94.3269 210.084 95.1802C209.262 96.0229 208.26 96.6842 207.076 97.1642C205.892 97.6336 204.558 97.8682 203.076 97.8682C201.582 97.8682 200.244 97.6336 199.06 97.1642C197.876 96.6842 196.868 96.0229 196.036 95.1802C195.214 94.3269 194.58 93.3189 194.132 92.1562C193.694 90.9829 193.476 89.7082 193.476 88.3322V74.4762H197.78V88.3162C197.78 89.2016 197.897 90.0016 198.132 90.7162C198.377 91.4309 198.724 92.0442 199.172 92.5562C199.63 93.0576 200.185 93.4469 200.836 93.7242C201.497 94.0016 202.244 94.1402 203.076 94.1402ZM224.506 85.4842C225.316 85.4842 226.02 85.3829 226.618 85.1802C227.226 84.9776 227.722 84.7002 228.106 84.3482C228.5 83.9856 228.794 83.5589 228.986 83.0682C229.178 82.5776 229.274 82.0389 229.274 81.4522C229.274 80.2789 228.884 79.3776 228.106 78.7482C227.338 78.1189 226.159 77.8042 224.57 77.8042H221.818V85.4842H224.506ZM235.578 97.6122H231.69C230.954 97.6122 230.42 97.3242 230.09 96.7482L225.226 89.3402C225.044 89.0629 224.842 88.8656 224.618 88.7482C224.404 88.6309 224.084 88.5722 223.658 88.5722H221.818V97.6122H217.514V74.4762H224.57C226.138 74.4762 227.482 74.6416 228.602 74.9722C229.732 75.2922 230.655 75.7456 231.37 76.3322C232.095 76.9189 232.628 77.6229 232.97 78.4442C233.311 79.2549 233.482 80.1509 233.482 81.1322C233.482 81.9109 233.364 82.6469 233.13 83.3402C232.906 84.0336 232.575 84.6629 232.138 85.2282C231.711 85.7936 231.178 86.2896 230.538 86.7162C229.908 87.1429 229.188 87.4789 228.378 87.7242C228.655 87.8842 228.911 88.0762 229.146 88.3002C229.38 88.5136 229.594 88.7696 229.786 89.0682L235.578 97.6122ZM257.58 74.4762V97.6122H255.372C255.031 97.6122 254.743 97.5589 254.508 97.4522C254.284 97.3349 254.065 97.1429 253.852 96.8762L241.772 81.4522C241.836 82.1562 241.868 82.8069 241.868 83.4042V97.6122H238.076V74.4762H240.332C240.513 74.4762 240.668 74.4869 240.796 74.5082C240.935 74.5189 241.052 74.5509 241.148 74.6042C241.255 74.6469 241.356 74.7162 241.452 74.8122C241.548 74.8976 241.655 75.0149 241.772 75.1642L253.9 90.6522C253.868 90.2789 253.841 89.9109 253.82 89.5482C253.799 89.1856 253.788 88.8496 253.788 88.5402V74.4762H257.58ZM274.956 88.8762L272.14 81.1802C272.002 80.8389 271.858 80.4336 271.708 79.9642C271.559 79.4949 271.41 78.9882 271.26 78.4442C271.122 78.9882 270.978 79.5002 270.828 79.9802C270.679 80.4496 270.535 80.8602 270.396 81.2122L267.596 88.8762H274.956ZM282.556 97.6122H279.228C278.855 97.6122 278.551 97.5216 278.316 97.3402C278.082 97.1482 277.906 96.9136 277.788 96.6362L276.06 91.9162H266.476L264.748 96.6362C264.663 96.8816 264.498 97.1056 264.252 97.3082C264.007 97.5109 263.703 97.6122 263.34 97.6122H259.98L269.084 74.4762H273.468L282.556 97.6122ZM310.039 74.4762V97.6122H306.247V82.6682C306.247 82.0709 306.279 81.4256 306.343 80.7322L299.351 93.8682C299.02 94.4976 298.514 94.8122 297.831 94.8122H297.223C296.54 94.8122 296.034 94.4976 295.703 93.8682L288.631 80.6842C288.663 81.0362 288.69 81.3829 288.711 81.7242C288.732 82.0656 288.743 82.3802 288.743 82.6682V97.6122H284.951V74.4762H288.199C288.391 74.4762 288.556 74.4816 288.695 74.4922C288.834 74.5029 288.956 74.5296 289.063 74.5722C289.18 74.6149 289.282 74.6842 289.367 74.7802C289.463 74.8762 289.554 75.0042 289.639 75.1642L296.567 88.0122C296.748 88.3536 296.914 88.7056 297.063 89.0682C297.223 89.4309 297.378 89.8042 297.527 90.1882C297.676 89.7936 297.831 89.4149 297.991 89.0522C298.151 88.6789 298.322 88.3216 298.503 87.9802L305.335 75.1642C305.42 75.0042 305.511 74.8762 305.607 74.7802C305.703 74.6842 305.804 74.6149 305.911 74.5722C306.028 74.5296 306.156 74.5029 306.295 74.4922C306.434 74.4816 306.599 74.4762 306.791 74.4762H310.039ZM319.521 77.9002V84.3162H327.617V87.6282H319.521V94.1722H329.793V97.6122H315.201V74.4762H329.793V77.9002H319.521ZM353.111 74.4762V97.6122H350.903C350.562 97.6122 350.274 97.5589 350.039 97.4522C349.815 97.3349 349.597 97.1429 349.383 96.8762L337.303 81.4522C337.367 82.1562 337.399 82.8069 337.399 83.4042V97.6122H333.607V74.4762H335.863C336.045 74.4762 336.199 74.4869 336.327 74.5082C336.466 74.5189 336.583 74.5509 336.679 74.6042C336.786 74.6469 336.887 74.7162 336.983 74.8122C337.079 74.8976 337.186 75.0149 337.303 75.1642L349.431 90.6522C349.399 90.2789 349.373 89.9109 349.351 89.5482C349.33 89.1856 349.319 88.8496 349.319 88.5402V74.4762H353.111ZM374.424 78.0122H367.448V97.6122H363.144V78.0122H356.168V74.4762H374.424V78.0122Z" fill="white"/>
</svg>
